<svg width="1024" height="1024" viewBox="0 0 1024 1024" fill="none" xmlns="http://www.w3.org/2000/svg">
<g clip-path="url(#clip0_4591_7619)">
<rect width="1024" height="1024" fill="url(#paint0_linear_4591_7619)"/>
<path opacity="0.5" d="M2386.87 1434.56L-1016.92 1434.56C-1016.92 1434.56 -1926.69 573.359 -1198.63 297.092C-470.562 20.8247 -163.272 748.082 590.182 463.443C1111.79 266.392 1979.51 57.0992 2573.9 509.173C3168.3 961.246 2386.87 1434.56 2386.87 1434.56Z" fill="url(#paint1_linear_4591_7619)" fill-opacity="0.7"/>
<path opacity="0.5" d="M2725.54 1434.56L-1226.48 1434.56C-1226.48 1434.56 -1927.59 951.593 -676.173 450.183C575.245 -51.2263 385.803 1149.61 2046.87 346.239C3002.26 -115.834 2725.54 1434.56 2725.54 1434.56Z" fill="url(#paint2_linear_4591_7619)" fill-opacity="0.7"/>
<path opacity="0.5" d="M2680.59 1213.25L-929 1398.64L-929 202C-929 202 -681.806 1025.04 726.917 651.443C2591.62 156.915 2680.59 1213.25 2680.59 1213.25Z" fill="url(#paint3_linear_4591_7619)" fill-opacity="0.7"/>
<g filter="url(#filter0_d_4591_7619)">
<path d="M710.013 516.643L430.706 795.95L261 626.245" stroke="white" stroke-width="96"/>
</g>
<g filter="url(#filter1_d_4591_7619)">
<mask id="path-5-outside-1_4591_7619" maskUnits="userSpaceOnUse" x="583" y="726.999" width="180" height="119" fill="black">
<rect fill="white" x="583" y="726.999" width="180" height="119"/>
<path d="M635.355 728.635L616.037 844.999H584.446L603.764 728.635H635.355ZM655.008 844.999L674.327 728.635H724.554C733.19 728.635 740.463 730.339 746.372 733.749C752.281 737.158 756.524 741.949 759.099 748.124C761.675 754.298 762.281 761.514 760.918 769.771C759.554 778.18 756.524 785.434 751.827 791.533C747.168 797.593 741.221 802.271 733.986 805.567C726.789 808.824 718.721 810.453 709.781 810.453H679.781L683.872 785.908H707.508C711.296 785.908 714.63 785.264 717.508 783.976C720.387 782.65 722.717 780.794 724.497 778.408C726.277 775.983 727.433 773.105 727.963 769.771C728.493 766.438 728.247 763.597 727.224 761.249C726.24 758.862 724.535 757.044 722.111 755.794C719.724 754.506 716.675 753.862 712.963 753.862H701.827L686.599 844.999H655.008Z"/>
</mask>
<path d="M635.355 728.635L616.037 844.999H584.446L603.764 728.635H635.355ZM655.008 844.999L674.327 728.635H724.554C733.19 728.635 740.463 730.339 746.372 733.749C752.281 737.158 756.524 741.949 759.099 748.124C761.675 754.298 762.281 761.514 760.918 769.771C759.554 778.18 756.524 785.434 751.827 791.533C747.168 797.593 741.221 802.271 733.986 805.567C726.789 808.824 718.721 810.453 709.781 810.453H679.781L683.872 785.908H707.508C711.296 785.908 714.63 785.264 717.508 783.976C720.387 782.65 722.717 780.794 724.497 778.408C726.277 775.983 727.433 773.105 727.963 769.771C728.493 766.438 728.247 763.597 727.224 761.249C726.24 758.862 724.535 757.044 722.111 755.794C719.724 754.506 716.675 753.862 712.963 753.862H701.827L686.599 844.999H655.008Z" fill="white"/>
<path d="M635.355 728.635L636.342 728.799C636.39 728.509 636.308 728.212 636.118 727.988C635.928 727.764 635.649 727.635 635.355 727.635V728.635ZM616.037 844.999V845.999C616.526 845.999 616.943 845.645 617.023 845.162L616.037 844.999ZM584.446 844.999L583.459 844.835C583.411 845.125 583.493 845.421 583.683 845.645C583.873 845.869 584.152 845.999 584.446 845.999V844.999ZM603.764 728.635V727.635C603.275 727.635 602.858 727.989 602.778 728.471L603.764 728.635ZM634.369 728.471L615.05 844.835L617.023 845.162L636.342 728.799L634.369 728.471ZM616.037 843.999H584.446V845.999H616.037V843.999ZM585.432 845.162L604.751 728.799L602.778 728.471L583.459 844.835L585.432 845.162ZM603.764 729.635H635.355V727.635H603.764V729.635ZM655.008 844.999L654.022 844.835C653.974 845.125 654.056 845.421 654.246 845.645C654.436 845.869 654.715 845.999 655.008 845.999V844.999ZM674.327 728.635V727.635C673.838 727.635 673.42 727.989 673.34 728.471L674.327 728.635ZM746.372 733.749L745.872 734.615L746.372 733.749ZM759.099 748.124L760.022 747.739L759.099 748.124ZM760.918 769.771L759.931 769.608L759.93 769.611L760.918 769.771ZM751.827 791.533L751.034 790.922L751.034 790.923L751.827 791.533ZM733.986 805.567L734.398 806.478L734.4 806.477L733.986 805.567ZM679.781 810.453L678.795 810.289C678.746 810.579 678.828 810.875 679.018 811.099C679.208 811.324 679.487 811.453 679.781 811.453V810.453ZM683.872 785.908V784.908C683.383 784.908 682.966 785.261 682.886 785.743L683.872 785.908ZM717.508 783.976L717.917 784.889L717.927 784.884L717.508 783.976ZM724.497 778.408L725.299 779.006L725.303 779L724.497 778.408ZM727.963 769.771L728.951 769.928L727.963 769.771ZM727.224 761.249L726.3 761.63C726.302 761.636 726.305 761.642 726.308 761.648L727.224 761.249ZM722.111 755.794L721.636 756.674C721.641 756.677 721.647 756.68 721.652 756.683L722.111 755.794ZM701.827 753.862V752.862C701.338 752.862 700.921 753.215 700.84 753.697L701.827 753.862ZM686.599 844.999V845.999C687.088 845.999 687.505 845.645 687.586 845.163L686.599 844.999ZM655.995 845.162L675.313 728.799L673.34 728.471L654.022 844.835L655.995 845.162ZM674.327 729.635H724.554V727.635H674.327V729.635ZM724.554 729.635C733.061 729.635 740.151 731.314 745.872 734.615L746.872 732.882C740.775 729.365 733.32 727.635 724.554 727.635V729.635ZM745.872 734.615C751.595 737.917 755.687 742.541 758.176 748.509L760.022 747.739C757.36 741.358 752.967 736.399 746.872 732.882L745.872 734.615ZM758.176 748.509C760.664 754.471 761.272 761.49 759.931 769.608L761.904 769.934C763.291 761.538 762.686 754.124 760.022 747.739L758.176 748.509ZM759.93 769.611C758.59 777.874 755.62 784.969 751.034 790.922L752.619 792.143C757.428 785.899 760.517 778.486 761.905 769.931L759.93 769.611ZM751.034 790.923C746.478 796.849 740.663 801.426 733.571 804.657L734.4 806.477C741.778 803.116 747.857 798.338 752.619 792.142L751.034 790.923ZM733.573 804.656C726.522 807.847 718.597 809.453 709.781 809.453V811.453C718.844 811.453 727.056 809.801 734.398 806.478L733.573 804.656ZM709.781 809.453H679.781V811.453H709.781V809.453ZM680.768 810.617L684.858 786.072L682.886 785.743L678.795 810.289L680.768 810.617ZM683.872 786.908H707.508V784.908H683.872V786.908ZM707.508 786.908C711.409 786.908 714.886 786.244 717.917 784.889L717.1 783.063C714.373 784.283 711.183 784.908 707.508 784.908V786.908ZM717.927 784.884C720.947 783.493 723.412 781.534 725.299 779.006L723.696 777.81C722.022 780.054 719.827 781.807 717.09 783.067L717.927 784.884ZM725.303 779C727.189 776.432 728.398 773.4 728.951 769.928L726.975 769.614C726.467 772.81 725.366 775.535 723.691 777.816L725.303 779ZM728.951 769.928C729.502 766.465 729.261 763.42 728.141 760.849L726.308 761.648C727.233 763.774 727.485 766.411 726.975 769.614L728.951 769.928ZM728.149 760.867C727.068 758.249 725.191 756.257 722.569 754.905L721.652 756.683C723.879 757.831 725.411 759.476 726.3 761.63L728.149 760.867ZM722.586 754.914C720.01 753.524 716.783 752.862 712.963 752.862V754.862C716.568 754.862 719.439 755.489 721.636 756.674L722.586 754.914ZM712.963 752.862H701.827V754.862H712.963V752.862ZM700.84 753.697L685.613 844.834L687.586 845.163L702.813 754.027L700.84 753.697ZM686.599 843.999H655.008V845.999H686.599V843.999Z" fill="white" mask="url(#path-5-outside-1_4591_7619)"/>
</g>
<g filter="url(#filter2_d_4591_7619)">
<path fill-rule="evenodd" clip-rule="evenodd" d="M274.683 265.526L255.02 206H240L266.597 281.626H283.5L310.146 206H295.094L275.463 265.526H274.683ZM325.75 279.172C329.872 281.542 334.772 282.728 340.45 282.73C344.842 282.728 348.748 282.061 352.169 280.715C355.579 279.367 358.404 277.482 360.596 275.029C362.788 272.576 364.282 269.7 365.078 266.402L352.607 265.005C352.023 266.613 351.146 267.946 349.993 269.034C348.84 270.123 347.476 270.935 345.901 271.487C344.326 272.04 342.572 272.316 340.624 272.316C337.717 272.316 335.184 271.699 333.025 270.448C330.865 269.197 329.176 267.41 327.975 265.054C326.815 262.78 326.215 260.067 326.175 256.915H365.646V252.82C365.646 247.849 364.964 243.56 363.584 239.954C362.204 236.347 360.32 233.374 357.917 231.034C355.514 228.695 352.77 226.973 349.652 225.852C346.551 224.731 343.238 224.178 339.747 224.178C334.34 224.178 329.631 225.413 325.62 227.883C321.61 230.352 318.492 233.796 316.268 238.215C314.043 242.634 312.923 247.67 312.923 253.6C312.923 259.53 314.043 264.68 316.251 269.05C318.46 273.421 321.626 276.8 325.75 279.172ZM326.202 247.898C326.334 245.674 326.897 243.607 327.926 241.708C329.079 239.58 330.686 237.858 332.749 236.542C334.811 235.226 337.214 234.56 339.942 234.56C342.507 234.56 344.748 235.145 346.68 236.298C348.613 237.452 350.107 239.044 351.194 241.042C352.266 243.057 352.818 245.331 352.851 247.898H326.202ZM427.998 239.893L427.976 239.895C427.047 235.084 424.694 231.26 420.87 228.439C417.038 225.612 411.809 224.199 405.168 224.199C400.638 224.199 396.644 224.914 393.185 226.327C389.726 227.741 387.031 229.739 385.099 232.306C383.166 234.873 382.208 237.911 382.241 241.404C382.225 245.546 383.524 248.974 386.122 251.655C388.72 254.336 392.747 256.253 398.186 257.39L407.847 259.421C410.462 259.989 412.378 260.801 413.628 261.857C414.878 262.913 415.495 264.262 415.495 265.887C415.495 267.804 414.537 269.428 412.605 270.728C410.673 272.028 408.01 272.677 404.941 272.677C401.872 272.677 399.371 272.028 397.455 270.728C395.539 269.428 394.273 267.495 393.688 264.928L380.666 266.179C381.478 271.394 383.995 275.472 388.232 278.38C392.47 281.288 398.056 282.75 404.99 282.75C409.715 282.75 413.904 281.986 417.541 280.459C421.178 278.932 424.02 276.804 426.082 274.091C428.128 271.361 429.167 268.226 429.2 264.652C429.184 260.59 427.852 257.309 425.238 254.79C422.607 252.272 418.613 250.436 413.255 249.283L403.593 247.22C400.703 246.554 398.641 245.709 397.407 244.669C396.173 243.629 395.556 242.297 395.588 240.64C395.572 238.707 396.497 237.147 398.381 235.945C400.265 234.743 402.603 234.142 405.379 234.142C407.458 234.142 409.195 234.466 410.624 235.133C412.053 235.799 413.19 236.66 414.034 237.748C414.878 238.837 415.479 239.99 415.82 241.225L427.976 239.895L427.982 239.925L427.998 239.893ZM493.332 239.895L493.354 239.893L493.338 239.925L493.332 239.895ZM493.332 239.895L481.176 241.225C480.835 239.99 480.234 238.837 479.39 237.748C478.546 236.66 477.409 235.799 475.98 235.133C474.551 234.466 472.814 234.142 470.735 234.142C467.959 234.142 465.62 234.743 463.737 235.945C461.853 237.147 460.928 238.707 460.944 240.64C460.928 242.297 461.529 243.629 462.763 244.669C464.013 245.709 466.075 246.554 468.949 247.22L478.611 249.283C483.969 250.436 487.963 252.272 490.594 254.79C493.208 257.309 494.54 260.59 494.556 264.652C494.523 268.226 493.5 271.361 491.438 274.091C489.376 276.804 486.534 278.932 482.897 280.459C479.26 281.986 475.071 282.75 470.346 282.75C463.412 282.75 457.826 281.288 453.588 278.38C449.35 275.472 446.834 271.394 446.022 266.179L459.044 264.928C459.629 267.495 460.895 269.428 462.811 270.728C464.727 272.028 467.228 272.677 470.297 272.677C473.366 272.677 476.029 272.028 477.961 270.728C479.893 269.428 480.851 267.804 480.851 265.887C480.851 264.262 480.234 262.913 478.984 261.857C477.75 260.801 475.818 259.989 473.203 259.421L463.542 257.39C458.103 256.253 454.076 254.336 451.478 251.655C448.88 248.974 447.581 245.546 447.597 241.404C447.564 237.911 448.522 234.873 450.455 232.306C452.387 229.739 455.082 227.741 458.541 226.327C462 224.914 465.994 224.199 470.524 224.199C477.165 224.199 482.394 225.612 486.226 228.439C490.05 231.26 492.403 235.084 493.332 239.895ZM536.936 282.73C531.252 282.73 526.349 281.544 522.224 279.172C518.1 276.8 514.934 273.421 512.725 269.05C510.517 264.68 509.413 259.53 509.413 253.6C509.413 247.67 510.533 242.634 512.758 238.215C514.982 233.796 518.1 230.352 522.111 227.883C526.121 225.413 530.83 224.178 536.237 224.178C539.728 224.178 543.041 224.731 546.142 225.852C549.26 226.973 552.004 228.695 554.407 231.034C556.81 233.374 558.694 236.347 560.074 239.954C561.454 243.56 562.136 247.849 562.136 252.82V256.915H522.665C522.705 260.067 523.305 262.78 524.465 265.054C525.667 267.41 527.355 269.197 529.515 270.448C531.675 271.699 534.208 272.316 537.114 272.316C539.063 272.316 540.816 272.04 542.391 271.487C543.966 270.935 545.33 270.123 546.483 269.034C547.636 267.946 548.513 266.613 549.097 265.005L561.568 266.402C560.788 269.7 559.278 272.576 557.086 275.029C554.878 277.482 552.069 279.367 548.659 280.715C545.233 282.064 541.32 282.73 536.919 282.73H536.936ZM524.416 241.708C523.402 243.607 522.828 245.674 522.692 247.898H549.341C549.309 245.331 548.756 243.057 547.685 241.042C546.597 239.044 545.087 237.452 543.171 236.298C541.238 235.145 538.998 234.56 536.432 234.56C533.704 234.56 531.301 235.226 529.239 236.542C527.177 237.858 525.569 239.58 524.416 241.708ZM595.115 281.626V206H581.751V281.626H595.115ZM283.533 340.842V416.468H269.845V340.842H283.533ZM323.656 416.451V383.228C323.656 380.482 324.159 378.159 325.182 376.242C326.205 374.309 327.618 372.847 329.42 371.823C331.223 370.8 333.301 370.296 335.639 370.296C339.082 370.296 341.793 371.368 343.742 373.513C345.706 375.657 346.681 378.63 346.681 382.416V416.451H360.044V380.336C360.06 375.82 359.265 371.953 357.657 368.785C356.05 365.601 353.793 363.18 350.87 361.507C347.947 359.834 344.537 358.989 340.624 358.989C336.386 358.989 332.83 359.931 329.972 361.799C327.114 363.668 325.02 366.202 323.721 369.37H323.055V359.736H310.292V416.451H323.656ZM426.764 374.734L426.742 374.736C425.813 369.925 423.46 366.101 419.636 363.28C415.804 360.453 410.575 359.04 403.934 359.04C399.404 359.04 395.41 359.755 391.951 361.168C388.492 362.581 385.797 364.58 383.865 367.147C381.932 369.713 380.974 372.751 381.007 376.244C380.991 380.387 382.29 383.815 384.888 386.496C387.486 389.176 391.513 391.093 396.952 392.231L406.613 394.261C409.228 394.83 411.144 395.642 412.394 396.698C413.644 397.754 414.261 399.103 414.261 400.727C414.261 402.644 413.303 404.269 411.371 405.569C409.439 406.868 406.776 407.518 403.707 407.518C400.638 407.518 398.137 406.868 396.221 405.569C394.305 404.269 393.039 402.336 392.454 399.769L379.432 401.02C380.244 406.235 382.761 410.313 386.999 413.221C391.237 416.129 396.822 417.591 403.756 417.591C408.481 417.591 412.67 416.827 416.307 415.3C419.944 413.773 422.786 411.645 424.848 408.932C426.894 406.202 427.933 403.067 427.966 399.493C427.95 395.431 426.618 392.149 424.004 389.631C421.373 387.113 417.379 385.277 412.021 384.124L402.359 382.061C399.469 381.394 397.407 380.55 396.173 379.51C394.939 378.47 394.322 377.138 394.354 375.481C394.338 373.548 395.263 371.988 397.147 370.786C399.031 369.583 401.369 368.982 404.145 368.982C406.224 368.982 407.961 369.307 409.39 369.973C410.819 370.639 411.956 371.501 412.8 372.589C413.644 373.678 414.245 374.831 414.586 376.066L426.742 374.736L426.748 374.766L426.764 374.734ZM447.337 359.751V437.733H460.701V407.531H461.253C461.967 408.912 462.974 410.358 464.257 411.902C465.54 413.445 467.261 414.745 469.404 415.833C471.547 416.922 474.243 417.458 477.49 417.458C481.939 417.458 485.918 416.321 489.441 414.03C492.965 411.739 495.741 408.409 497.787 404.055C499.817 399.701 500.84 394.486 500.84 388.182C500.84 381.879 499.801 376.55 497.722 372.212C495.644 367.858 492.851 364.576 489.311 362.351C485.771 360.125 481.826 359.004 477.442 359.004C474.129 359.004 471.401 359.556 469.258 360.677C467.115 361.798 465.41 363.147 464.159 364.706C462.909 366.282 461.935 367.744 461.253 369.125H460.473V359.751H447.337ZM462 397.735C460.961 394.989 460.441 391.773 460.441 388.101L460.425 388.133C460.425 384.462 460.928 381.278 461.951 378.564C462.974 375.851 464.484 373.756 466.481 372.245C468.479 370.734 470.784 369.986 473.756 369.986C476.727 369.986 479.212 370.766 481.209 372.31C483.206 373.853 484.7 375.998 485.707 378.727C486.713 381.456 487.217 384.559 487.217 388.101C487.217 391.643 486.713 394.811 485.69 397.572C484.667 400.334 483.157 402.511 481.16 404.103C479.163 405.696 476.565 406.492 473.74 406.492C470.914 406.492 468.511 405.728 466.53 404.185C464.565 402.641 463.039 400.497 462 397.735ZM539.412 417.576C533.732 417.574 528.831 416.389 524.709 414.018C520.585 411.646 517.418 408.267 515.21 403.896C513.002 399.526 511.897 394.376 511.897 388.446C511.897 382.516 513.018 377.48 515.242 373.061C517.467 368.642 520.585 365.198 524.595 362.729C528.606 360.259 533.315 359.024 538.722 359.024C542.213 359.024 545.525 359.577 548.627 360.698C551.744 361.819 554.488 363.541 556.892 365.88C559.295 368.22 561.178 371.193 562.559 374.799C563.939 378.406 564.621 382.695 564.621 387.666V391.76H525.149C525.19 394.913 525.79 397.626 526.95 399.9C528.151 402.255 529.84 404.043 532 405.294C534.159 406.544 536.692 407.162 539.599 407.162C541.547 407.162 543.301 406.886 544.876 406.333C546.451 405.781 547.815 404.969 548.968 403.88C550.121 402.792 550.997 401.459 551.582 399.851L564.052 401.248C563.273 404.546 561.763 407.422 559.571 409.875C557.363 412.328 554.553 414.213 551.144 415.561C547.72 416.909 543.809 417.575 539.412 417.576ZM526.901 376.554C525.887 378.453 525.312 380.52 525.177 382.744H551.826C551.793 380.177 551.241 377.902 550.169 375.888C549.081 373.89 547.571 372.298 545.655 371.144C543.723 369.991 541.482 369.406 538.917 369.406C536.189 369.406 533.786 370.072 531.723 371.388C529.661 372.704 528.054 374.426 526.901 376.554ZM594.384 413.839C598.443 416.341 603.298 417.576 608.949 417.576L608.9 417.608C613.658 417.608 617.782 416.731 621.306 415.009C624.829 413.287 627.606 410.866 629.652 407.779C631.698 404.692 632.867 401.134 633.192 397.122H620.429C620.039 399.152 619.309 400.891 618.253 402.32C617.198 403.75 615.883 404.839 614.324 405.586C612.765 406.333 610.995 406.707 609.03 406.707C606.237 406.707 603.818 405.96 601.772 404.465C599.726 402.987 598.135 400.842 596.998 398.08C595.878 395.318 595.31 391.955 595.31 388.138C595.31 384.32 595.878 381.054 597.031 378.309C598.184 375.563 599.791 373.467 601.853 372.005C603.916 370.543 606.319 369.812 609.047 369.812C612.262 369.812 614.843 370.722 616.776 372.557C618.708 374.393 619.926 376.684 620.445 379.413H633.208C632.916 375.336 631.698 371.761 629.587 368.691C627.476 365.62 624.635 363.248 621.079 361.559C617.523 359.869 613.447 359.024 608.852 359.024C603.315 359.024 598.525 360.259 594.482 362.729C590.438 365.198 587.305 368.642 585.096 373.061C582.888 377.48 581.784 382.598 581.784 388.333C581.784 394.067 582.872 399.136 585.048 403.523C587.223 407.909 590.341 411.353 594.384 413.839ZM680.849 359.751V370.084H669.678V399.392C669.678 401.195 669.954 402.56 670.506 403.502C671.058 404.445 671.789 405.094 672.698 405.436C673.607 405.777 674.614 405.955 675.718 405.955C676.546 405.955 677.326 405.89 678.024 405.777L678.169 405.75C678.797 405.633 679.284 405.542 679.631 405.452L681.888 415.898C681.174 416.142 680.151 416.418 678.836 416.71C677.52 417.003 675.913 417.182 674.013 417.23C670.668 417.328 667.648 416.824 664.969 415.703C662.29 414.582 660.162 412.844 658.604 410.472C657.045 408.1 656.266 405.159 656.298 401.618V370.084H648.26V359.751H656.298V346.153H656.314H669.678V359.751H680.849ZM710.677 413.916C714.737 416.353 719.527 417.571 725.064 417.571C730.585 417.571 735.391 416.353 739.45 413.916C743.51 411.479 746.66 408.067 748.884 403.681C751.109 399.311 752.229 394.193 752.229 388.328C752.229 382.464 751.109 377.33 748.884 372.927C746.66 368.524 743.51 365.096 739.45 362.659C735.391 360.223 730.585 359.004 725.064 359.004C719.543 359.004 714.737 360.223 710.677 362.659C706.618 365.096 703.468 368.524 701.243 372.927C699.019 377.346 697.898 382.48 697.898 388.328C697.898 394.177 699.019 399.295 701.243 403.681C703.468 408.067 706.618 411.479 710.677 413.916ZM732.679 404.38C730.65 406.037 728.149 406.865 725.145 406.865C722.06 406.865 719.511 406.037 717.481 404.38C715.451 402.722 713.925 400.497 712.934 397.686C711.944 394.892 711.44 391.789 711.44 388.312C711.44 384.835 711.944 381.7 712.934 378.873C713.941 376.046 715.451 373.804 717.481 372.131C719.511 370.458 722.141 369.613 725.145 369.613C728.149 369.613 730.666 370.458 732.679 372.131C734.693 373.804 736.203 376.063 737.193 378.873C738.184 381.7 738.687 384.868 738.687 388.312C738.687 391.756 738.184 394.876 737.193 397.686C736.203 400.48 734.693 402.722 732.679 404.38ZM767.687 416.467V359.752H780.645V369.207H781.229C782.269 365.925 784.039 363.407 786.555 361.62C789.072 359.833 791.962 358.939 795.21 358.939C795.957 358.939 796.785 358.972 797.694 359.037C798.62 359.102 799.383 359.183 800 359.313V371.611C799.432 371.416 798.539 371.238 797.321 371.075C796.103 370.913 794.934 370.832 793.797 370.832C791.362 370.832 789.186 371.351 787.254 372.407C785.321 373.463 783.811 374.893 782.691 376.745C781.57 378.597 781.035 380.725 781.035 383.13V416.467H767.687ZM259.193 475.688V551.314H272.865V525.758H287.333C293.162 525.758 298.066 524.686 302.06 522.525C306.055 520.365 309.059 517.408 311.104 513.639C313.15 509.886 314.173 505.516 314.173 500.723C314.173 495.931 313.15 491.642 311.121 487.856C309.091 484.071 306.103 481.098 302.158 478.937C298.212 476.776 293.341 475.688 287.528 475.688H259.193ZM272.865 514.5H285.482C288.875 514.5 291.652 513.915 293.828 512.729C296.004 511.543 297.595 509.918 298.65 507.855C299.689 505.792 300.225 503.42 300.225 500.723C300.225 498.026 299.706 495.671 298.65 493.64C297.611 491.593 295.987 490.001 293.811 488.863C291.636 487.726 288.843 487.141 285.417 487.141H272.865V514.5ZM327.553 551.314V494.599H340.511V504.054H341.095C342.135 500.773 343.904 498.254 346.421 496.467C348.938 494.68 351.828 493.787 355.076 493.787C355.807 493.787 356.651 493.819 357.56 493.884C358.486 493.949 359.249 494.03 359.866 494.16V506.459C359.298 506.264 358.405 506.085 357.187 505.923C355.969 505.76 354.8 505.679 353.663 505.679C351.228 505.679 349.035 506.199 347.119 507.255C345.187 508.295 343.677 509.741 342.557 511.593C341.453 513.445 340.9 515.573 340.9 517.977V551.314H327.553ZM381.185 548.764C385.245 551.2 390.035 552.419 395.572 552.419C401.109 552.419 405.899 551.2 409.958 548.764C414.017 546.327 417.168 542.915 419.392 538.528C421.617 534.158 422.737 529.041 422.737 523.176C422.737 517.311 421.617 512.177 419.392 507.774C417.168 503.372 414.017 499.944 409.958 497.507C405.899 495.07 401.109 493.852 395.572 493.852C390.035 493.852 385.245 495.07 381.185 497.507C377.126 499.944 373.976 503.372 371.751 507.774C369.527 512.193 368.406 517.327 368.406 523.176C368.406 529.024 369.527 534.142 371.751 538.528C373.976 542.915 377.126 546.327 381.185 548.764ZM403.187 539.227C401.157 540.884 398.657 541.713 395.653 541.713C392.568 541.713 390.018 540.884 387.989 539.227C385.959 537.57 384.433 535.344 383.442 532.534C382.452 529.739 381.948 526.636 381.948 523.16C381.948 519.683 382.452 516.547 383.442 513.721C384.449 510.894 385.959 508.652 387.989 506.978C390.018 505.305 392.649 504.46 395.653 504.46C398.657 504.46 401.174 505.305 403.187 506.978C405.201 508.652 406.711 510.91 407.701 513.721C408.692 516.547 409.195 519.715 409.195 523.16C409.195 526.604 408.692 529.723 407.701 532.534C406.711 535.328 405.201 537.57 403.187 539.227Z" fill="url(#paint4_linear_4591_7619)"/>
<path d="M255.02 206L256.919 205.373L256.465 204H255.02V206ZM274.683 265.526L272.784 266.153L273.238 267.526H274.683V265.526ZM240 206V204H237.177L238.113 206.664L240 206ZM266.597 281.626L264.71 282.289L265.18 283.626H266.597V281.626ZM283.5 281.626V283.626H284.916L285.387 282.291L283.5 281.626ZM310.146 206L312.032 206.665L312.971 204H310.146V206ZM295.094 206V204H293.648L293.195 205.374L295.094 206ZM275.463 265.526V267.526H276.909L277.362 266.152L275.463 265.526ZM340.45 282.73L340.449 284.73H340.451L340.45 282.73ZM325.75 279.172L326.747 277.438L325.75 279.172ZM352.169 280.715L352.901 282.576L352.904 282.575L352.169 280.715ZM365.078 266.402L367.022 266.871L367.554 264.667L365.3 264.415L365.078 266.402ZM352.607 265.005L352.83 263.018L351.265 262.842L350.727 264.322L352.607 265.005ZM349.993 269.034L351.366 270.488L349.993 269.034ZM345.901 271.487L346.563 273.375L345.901 271.487ZM333.025 270.448L334.027 268.717V268.717L333.025 270.448ZM327.975 265.054L329.756 264.145L327.975 265.054ZM326.175 256.915V254.915H324.149L324.175 256.94L326.175 256.915ZM365.646 256.915V258.915H367.646V256.915H365.646ZM363.584 239.954L361.716 240.668V240.668L363.584 239.954ZM357.917 231.034L359.312 229.601L357.917 231.034ZM349.652 225.852L348.972 227.733L348.975 227.734L349.652 225.852ZM325.62 227.883L324.572 226.18L325.62 227.883ZM316.268 238.215L318.054 239.114L316.268 238.215ZM316.251 269.05L314.466 269.952L316.251 269.05ZM327.926 241.708L329.685 242.661L327.926 241.708ZM326.202 247.898L324.205 247.779L324.079 249.898H326.202V247.898ZM346.68 236.298L347.706 234.581V234.581L346.68 236.298ZM351.194 241.042L352.96 240.103L352.956 240.094L352.951 240.086L351.194 241.042ZM352.851 247.898V249.898H354.876L354.851 247.873L352.851 247.898ZM427.998 239.893L429.787 240.787L431.427 237.506L427.781 237.905L427.998 239.893ZM420.87 228.439L419.683 230.049V230.049L420.87 228.439ZM393.185 226.327L392.428 224.476V224.476L393.185 226.327ZM382.241 241.404L384.241 241.411L384.241 241.398L384.241 241.385L382.241 241.404ZM386.122 251.655L387.558 250.263L386.122 251.655ZM398.186 257.39L398.598 255.433L398.595 255.432L398.186 257.39ZM407.847 259.421L408.273 257.466L408.259 257.463L407.847 259.421ZM413.628 261.857L414.919 260.33H414.919L413.628 261.857ZM412.605 270.728L413.721 272.387L412.605 270.728ZM397.455 270.728L396.333 272.383L397.455 270.728ZM393.688 264.928L395.638 264.484L395.248 262.769L393.497 262.937L393.688 264.928ZM380.666 266.179L380.475 264.188L378.363 264.391L378.69 266.487L380.666 266.179ZM388.232 278.38L387.101 280.029L388.232 278.38ZM417.541 280.459L418.316 282.303L417.541 280.459ZM426.082 274.091L427.674 275.301L427.682 275.29L426.082 274.091ZM429.2 264.652L431.2 264.67L431.2 264.657L431.2 264.644L429.2 264.652ZM425.238 254.79L426.625 253.35L426.621 253.346L425.238 254.79ZM413.255 249.283L413.675 247.328L413.672 247.327L413.255 249.283ZM403.593 247.22L403.144 249.169L403.16 249.172L403.176 249.176L403.593 247.22ZM397.407 244.669L398.695 243.14V243.14L397.407 244.669ZM395.588 240.64L397.588 240.679L397.588 240.651L397.588 240.623L395.588 240.64ZM398.381 235.945L397.305 234.259V234.259L398.381 235.945ZM410.624 235.133L409.779 236.945L409.779 236.945L410.624 235.133ZM414.034 237.748L412.454 238.974L412.454 238.974L414.034 237.748ZM415.82 241.225L413.892 241.757L414.345 243.398L416.038 243.213L415.82 241.225ZM427.982 239.925L426.018 240.304L427.135 246.095L429.771 240.819L427.982 239.925ZM493.354 239.893L495.144 240.786L496.781 237.506L493.137 237.905L493.354 239.893ZM493.338 239.925L491.374 240.304L492.491 246.099L495.127 240.818L493.338 239.925ZM481.176 241.225L479.248 241.757L479.701 243.398L481.394 243.213L481.176 241.225ZM479.39 237.748L477.81 238.974L477.81 238.974L479.39 237.748ZM475.98 235.133L475.135 236.945L475.135 236.945L475.98 235.133ZM463.737 235.945L464.813 237.631V237.631L463.737 235.945ZM460.944 240.64L462.944 240.66L462.944 240.641L462.944 240.623L460.944 240.64ZM462.763 244.669L461.474 246.199L461.484 246.207L462.763 244.669ZM468.949 247.22L468.498 249.168L468.515 249.172L468.531 249.176L468.949 247.22ZM478.611 249.283L479.031 247.328L479.028 247.327L478.611 249.283ZM490.594 254.79L491.981 253.35L491.977 253.346L490.594 254.79ZM494.556 264.652L496.556 264.67L496.556 264.657L496.556 264.644L494.556 264.652ZM491.438 274.091L493.03 275.301L493.034 275.297L491.438 274.091ZM482.897 280.459L483.671 282.303L482.897 280.459ZM453.588 278.38L452.457 280.029L453.588 278.38ZM446.022 266.179L445.831 264.188L443.719 264.391L444.046 266.487L446.022 266.179ZM459.044 264.928L460.994 264.484L460.604 262.769L458.853 262.937L459.044 264.928ZM462.811 270.728L461.689 272.383L462.811 270.728ZM477.961 270.728L479.077 272.387L477.961 270.728ZM478.984 261.857L477.684 263.377L477.693 263.385L478.984 261.857ZM473.203 259.421L473.628 257.466L473.615 257.463L473.203 259.421ZM463.542 257.39L463.953 255.433L463.951 255.432L463.542 257.39ZM451.478 251.655L452.914 250.263L451.478 251.655ZM447.597 241.404L449.597 241.411L449.597 241.398L449.597 241.385L447.597 241.404ZM458.541 226.327L457.784 224.476V224.476L458.541 226.327ZM486.226 228.439L485.039 230.049V230.049L486.226 228.439ZM512.725 269.05L514.51 268.148L512.725 269.05ZM512.758 238.215L514.544 239.114V239.114L512.758 238.215ZM522.111 227.883L521.062 226.18L521.062 226.18L522.111 227.883ZM546.142 225.852L545.462 227.733L545.465 227.734L546.142 225.852ZM554.407 231.034L555.802 229.601L554.407 231.034ZM560.074 239.954L561.942 239.239L560.074 239.954ZM562.136 256.915V258.915H564.136V256.915H562.136ZM522.665 256.915V254.915H520.639L520.665 256.94L522.665 256.915ZM524.465 265.054L522.684 265.963V265.963L524.465 265.054ZM529.515 270.448L530.517 268.717V268.717L529.515 270.448ZM546.483 269.034L547.856 270.488H547.856L546.483 269.034ZM549.097 265.005L549.32 263.018L547.756 262.842L547.218 264.322L549.097 265.005ZM561.568 266.402L563.514 266.862L564.033 264.666L561.791 264.415L561.568 266.402ZM557.086 275.029L558.573 276.367L558.578 276.362L557.086 275.029ZM548.659 280.715L549.391 282.576L549.395 282.575L548.659 280.715ZM522.692 247.898L520.696 247.777L520.567 249.898H522.692V247.898ZM524.416 241.708L522.658 240.755L522.652 240.766L524.416 241.708ZM549.341 247.898V249.898H551.366L551.341 247.873L549.341 247.898ZM547.685 241.042L549.451 240.103L549.446 240.094L549.441 240.086L547.685 241.042ZM543.171 236.298L544.202 234.585L544.196 234.581L543.171 236.298ZM529.239 236.542L528.163 234.856V234.856L529.239 236.542ZM595.115 206H597.115V204H595.115V206ZM595.115 281.626V283.626H597.115V281.626H595.115ZM581.751 206V204H579.751V206H581.751ZM581.751 281.626H579.751V283.626H581.751V281.626ZM283.533 416.468V418.468H285.533V416.468H283.533ZM283.533 340.842H285.533V338.842H283.533V340.842ZM269.845 416.468H267.845V418.468H269.845V416.468ZM269.845 340.842V338.842H267.845V340.842H269.845ZM323.656 416.451V418.451H325.656V416.451H323.656ZM325.182 376.242L326.947 377.184L326.95 377.178L325.182 376.242ZM343.742 373.513L342.261 374.858L342.267 374.864L343.742 373.513ZM346.681 416.451H344.681V418.451H346.681V416.451ZM360.044 416.451V418.451H362.044V416.451H360.044ZM360.044 380.336L358.044 380.329V380.336H360.044ZM357.657 368.785L355.872 369.687L355.874 369.69L357.657 368.785ZM350.87 361.507L351.864 359.771V359.771L350.87 361.507ZM329.972 361.799L331.067 363.473H331.067L329.972 361.799ZM323.721 369.37V371.37H325.062L325.571 370.129L323.721 369.37ZM323.055 369.37H321.055V371.37H323.055V369.37ZM323.055 359.736H325.055V357.736H323.055V359.736ZM310.292 359.736V357.736H308.292V359.736H310.292ZM310.292 416.451H308.292V418.451H310.292V416.451ZM426.764 374.734L428.554 375.627L430.192 372.346L426.546 372.745L426.764 374.734ZM419.636 363.28L420.823 361.67L419.636 363.28ZM391.951 361.168L391.194 359.317L391.951 361.168ZM381.007 376.244L383.007 376.252L383.007 376.239L383.007 376.226L381.007 376.244ZM396.952 392.231L397.364 390.273L397.361 390.273L396.952 392.231ZM406.613 394.261L407.039 392.307L407.025 392.304L406.613 394.261ZM396.221 405.569L397.344 403.914L396.221 405.569ZM392.454 399.769L394.404 399.325L394.014 397.61L392.263 397.778L392.454 399.769ZM379.432 401.02L379.241 399.029L377.129 399.232L377.456 401.327L379.432 401.02ZM386.999 413.221L385.867 414.87H385.867L386.999 413.221ZM416.307 415.3L415.533 413.456H415.533L416.307 415.3ZM424.848 408.932L426.44 410.142L426.449 410.131L424.848 408.932ZM427.966 399.493L429.966 399.511L429.966 399.498L429.966 399.485L427.966 399.493ZM424.004 389.631L425.391 388.191L425.387 388.187L424.004 389.631ZM412.021 384.124L412.441 382.169L412.438 382.168L412.021 384.124ZM402.359 382.061L401.91 384.009L401.926 384.013L401.942 384.016L402.359 382.061ZM396.173 379.51L394.884 381.039L394.884 381.039L396.173 379.51ZM394.354 375.481L396.354 375.52L396.354 375.492L396.354 375.464L394.354 375.481ZM397.147 370.786L398.223 372.472H398.223L397.147 370.786ZM409.39 369.973L410.235 368.161L410.235 368.161L409.39 369.973ZM412.8 372.589L411.22 373.815L411.22 373.815L412.8 372.589ZM414.586 376.066L412.658 376.598L413.111 378.239L414.804 378.054L414.586 376.066ZM426.748 374.766L424.784 375.144L425.899 380.943L428.537 375.659L426.748 374.766ZM447.337 437.733H445.337V439.733H447.337V437.733ZM447.337 359.751V357.751H445.337V359.751H447.337ZM460.701 437.733V439.733H462.701V437.733H460.701ZM460.701 407.531V405.531H458.701V407.531H460.701ZM461.253 407.531L463.029 406.612L462.47 405.531H461.253V407.531ZM464.257 411.902L465.795 410.623L464.257 411.902ZM469.404 415.833L468.498 417.616H468.498L469.404 415.833ZM497.787 404.055L499.597 404.905L499.6 404.9L497.787 404.055ZM497.722 372.212L495.917 373.074L495.919 373.076L497.722 372.212ZM489.311 362.351L490.376 360.658L489.311 362.351ZM464.159 364.706L462.599 363.455L462.593 363.463L464.159 364.706ZM461.253 369.125V371.125H462.496L463.046 370.011L461.253 369.125ZM460.473 369.125H458.473V371.125H460.473V369.125ZM460.473 359.751H462.473V357.751H460.473V359.751ZM460.441 388.101H462.441L458.652 387.207L460.441 388.101ZM462 397.735L463.872 397.031L463.87 397.027L462 397.735ZM460.425 388.133H458.425L462.214 389.027L460.425 388.133ZM461.951 378.564L463.822 379.27L461.951 378.564ZM466.481 372.245L467.688 373.84L467.688 373.84L466.481 372.245ZM481.209 372.31L479.986 373.892H479.986L481.209 372.31ZM485.707 378.727L487.583 378.035L485.707 378.727ZM485.69 397.572L487.566 398.267V398.267L485.69 397.572ZM481.16 404.103L482.407 405.667V405.667L481.16 404.103ZM466.53 404.185L465.295 405.757L465.301 405.762L466.53 404.185ZM524.709 414.018L523.712 415.751H523.712L524.709 414.018ZM539.412 417.576L539.412 419.576H539.412L539.412 417.576ZM515.21 403.896L513.425 404.798L515.21 403.896ZM515.242 373.061L517.029 373.96L515.242 373.061ZM524.595 362.729L523.547 361.025H523.547L524.595 362.729ZM548.627 360.698L547.947 362.579L547.95 362.58L548.627 360.698ZM564.621 391.76V393.76H566.621V391.76H564.621ZM525.149 391.76V389.76H523.124L523.15 391.786L525.149 391.76ZM526.95 399.9L525.168 400.809V400.809L526.95 399.9ZM532 405.294L533.002 403.563L532 405.294ZM548.968 403.88L550.341 405.334L550.341 405.334L548.968 403.88ZM551.582 399.851L551.805 397.863L550.24 397.688L549.702 399.168L551.582 399.851ZM564.052 401.248L565.999 401.708L566.518 399.512L564.275 399.261L564.052 401.248ZM559.571 409.875L561.057 411.213L561.062 411.208L559.571 409.875ZM551.144 415.561L551.876 417.422L551.879 417.421L551.144 415.561ZM525.177 382.744L523.181 382.623L523.052 384.744H525.177V382.744ZM526.901 376.554L525.142 375.601L525.137 375.612L526.901 376.554ZM551.826 382.744V384.744H553.851L553.825 382.719L551.826 382.744ZM550.169 375.888L551.935 374.949L551.93 374.94L551.926 374.932L550.169 375.888ZM545.655 371.144L546.687 369.431L546.68 369.427L545.655 371.144ZM531.723 371.388L530.648 369.702V369.702L531.723 371.388ZM608.949 417.576L610.059 419.239L615.55 415.576H608.949V417.576ZM594.384 413.839L595.433 412.136L595.432 412.135L594.384 413.839ZM608.9 417.608L607.79 415.944L602.3 419.608H608.9V417.608ZM621.306 415.009L622.184 416.806L621.306 415.009ZM629.652 407.779L631.319 408.884V408.884L629.652 407.779ZM633.192 397.122L635.185 397.283L635.36 395.122H633.192V397.122ZM620.429 397.122V395.122H618.776L618.465 396.745L620.429 397.122ZM618.253 402.32L616.644 401.133L618.253 402.32ZM601.772 404.465L602.952 402.85L602.944 402.844L601.772 404.465ZM596.998 398.08L595.145 398.832L595.149 398.841L596.998 398.08ZM616.776 372.557L615.398 374.007L616.776 372.557ZM620.445 379.413L618.481 379.787L618.79 381.413H620.445V379.413ZM633.208 379.413V381.413H635.357L635.203 379.27L633.208 379.413ZM629.587 368.691L631.235 367.558V367.558L629.587 368.691ZM621.079 361.559L621.937 359.752H621.937L621.079 361.559ZM594.482 362.729L593.439 361.022V361.022L594.482 362.729ZM585.096 373.061L583.307 372.167V372.167L585.096 373.061ZM585.048 403.523L586.839 402.634V402.634L585.048 403.523ZM680.849 370.084V372.084H682.849V370.084H680.849ZM680.849 359.751H682.849V357.751H680.849V359.751ZM669.678 370.084V368.084H667.678V370.084H669.678ZM670.506 403.502L672.231 402.491L672.231 402.491L670.506 403.502ZM678.024 405.777L678.345 407.751L678.368 407.747L678.39 407.743L678.024 405.777ZM678.169 405.75L677.804 403.783L677.804 403.783L678.169 405.75ZM679.631 405.452L681.586 405.029L681.145 402.99L679.126 403.517L679.631 405.452ZM681.888 415.898L682.534 417.791L684.219 417.216L683.843 415.476L681.888 415.898ZM678.836 416.71L679.27 418.663V418.663L678.836 416.71ZM674.013 417.23L673.962 415.231L673.955 415.231L674.013 417.23ZM658.604 410.472L660.275 409.373L658.604 410.472ZM656.298 401.618L658.298 401.636L658.298 401.627V401.618H656.298ZM656.298 370.084H658.298V368.084H656.298V370.084ZM648.26 370.084H646.26V372.084H648.26V370.084ZM648.26 359.751V357.751H646.26V359.751H648.26ZM656.298 359.751V361.751H658.298V359.751H656.298ZM656.298 346.153V344.153H654.298V346.153H656.298ZM669.678 346.153H671.678V344.153H669.678V346.153ZM669.678 359.751H667.678V361.751H669.678V359.751ZM739.45 413.916L738.421 412.201V412.201L739.45 413.916ZM748.884 403.681L747.102 402.774L747.101 402.776L748.884 403.681ZM748.884 372.927L750.669 372.025L750.669 372.025L748.884 372.927ZM739.45 362.659L738.421 364.374L739.45 362.659ZM710.677 362.659L709.648 360.945V360.945L710.677 362.659ZM701.243 372.927L699.458 372.025L699.457 372.028L701.243 372.927ZM701.243 403.681L703.027 402.776L703.027 402.776L701.243 403.681ZM732.679 404.38L733.944 405.929L733.95 405.924L732.679 404.38ZM717.481 404.38L716.216 405.929L717.481 404.38ZM712.934 397.686L714.821 397.021L714.819 397.018L712.934 397.686ZM712.934 378.873L711.05 378.202L711.047 378.212L712.934 378.873ZM732.679 372.131L731.401 373.669L731.401 373.669L732.679 372.131ZM737.193 378.873L739.081 378.212L739.08 378.208L737.193 378.873ZM737.193 397.686L739.078 398.354L739.08 398.351L737.193 397.686ZM767.687 359.752V357.752H765.687V359.752H767.687ZM767.687 416.467H765.687V418.467H767.687V416.467ZM780.645 359.752H782.645V357.752H780.645V359.752ZM780.645 369.207H778.645V371.207H780.645V369.207ZM781.229 369.207V371.207H782.694L783.136 369.811L781.229 369.207ZM786.555 361.62L787.713 363.251V363.251L786.555 361.62ZM797.694 359.037L797.552 361.032L797.554 361.032L797.694 359.037ZM800 359.313H802V357.69L800.412 357.356L800 359.313ZM800 371.611L799.351 373.503L802 374.412V371.611H800ZM797.321 371.075L797.056 373.058L797.321 371.075ZM782.691 376.745L780.98 375.71V375.71L782.691 376.745ZM781.035 416.467V418.467H783.035V416.467H781.035ZM259.193 551.314H257.193V553.314H259.193V551.314ZM259.193 475.688V473.688H257.193V475.688H259.193ZM272.865 551.314V553.314H274.865V551.314H272.865ZM272.865 525.758V523.758H270.865V525.758H272.865ZM302.06 522.525L301.109 520.766L302.06 522.525ZM311.104 513.639L309.348 512.682L309.347 512.685L311.104 513.639ZM311.121 487.856L309.358 488.801H309.358L311.121 487.856ZM272.865 514.5H270.865V516.5H272.865V514.5ZM293.828 512.729L292.871 510.973H292.871L293.828 512.729ZM298.65 507.855L300.431 508.766L300.436 508.755L298.65 507.855ZM298.65 493.64L296.867 494.545L296.871 494.554L296.876 494.562L298.65 493.64ZM293.811 488.863L292.885 490.636H292.885L293.811 488.863ZM272.865 487.141V485.141H270.865V487.141H272.865ZM327.553 494.599V492.599H325.553V494.599H327.553ZM327.553 551.314H325.553V553.314H327.553V551.314ZM340.511 494.599H342.511V492.599H340.511V494.599ZM340.511 504.054H338.511V506.054H340.511V504.054ZM341.095 504.054V506.054H342.56L343.002 504.658L341.095 504.054ZM346.421 496.467L347.579 498.098L346.421 496.467ZM357.56 493.884L357.418 495.879L357.42 495.879L357.56 493.884ZM359.866 494.16H361.866V492.538L360.278 492.203L359.866 494.16ZM359.866 506.459L359.217 508.351L361.866 509.259V506.459H359.866ZM357.187 505.923L356.922 507.905L356.922 507.905L357.187 505.923ZM347.119 507.255L348.067 509.016L348.076 509.011L348.085 509.006L347.119 507.255ZM342.557 511.593L340.845 510.557L340.839 510.568L342.557 511.593ZM340.9 551.314V553.314H342.9V551.314H340.9ZM381.185 548.764L382.215 547.049L381.185 548.764ZM409.958 548.764L410.987 550.478L409.958 548.764ZM419.392 538.528L417.61 537.621L417.608 537.624L419.392 538.528ZM419.392 507.774L417.607 508.676L419.392 507.774ZM409.958 497.507L410.987 495.792L409.958 497.507ZM381.185 497.507L382.215 499.222L381.185 497.507ZM371.751 507.774L369.966 506.873L369.965 506.875L371.751 507.774ZM371.751 538.528L369.967 539.433L371.751 538.528ZM403.187 539.227L404.452 540.776L404.458 540.771L403.187 539.227ZM383.442 532.534L385.329 531.869L385.327 531.865L383.442 532.534ZM383.442 513.721L381.558 513.05L381.555 513.059L383.442 513.721ZM387.989 506.978L386.716 505.435L386.716 505.435L387.989 506.978ZM403.187 506.978L404.465 505.44H404.465L403.187 506.978ZM407.701 513.721L409.589 513.059L409.587 513.056L407.701 513.721ZM407.701 532.534L409.586 533.202L409.587 533.198L407.701 532.534ZM253.121 206.627L272.784 266.153L276.582 264.899L256.919 205.373L253.121 206.627ZM240 208H255.02V204H240V208ZM268.484 280.962L241.887 205.336L238.113 206.664L264.71 282.289L268.484 280.962ZM283.5 279.626H266.597V283.626H283.5V279.626ZM308.26 205.335L281.614 280.961L285.387 282.291L312.032 206.665L308.26 205.335ZM295.094 208H310.146V204H295.094V208ZM277.362 266.152L296.993 206.626L293.195 205.374L273.563 264.9L277.362 266.152ZM274.683 267.526H275.463V263.526H274.683V267.526ZM340.45 280.73C335.054 280.728 330.512 279.603 326.747 277.438L324.753 280.906C329.232 283.481 334.489 284.728 340.449 284.73L340.45 280.73ZM351.436 278.854C348.291 280.092 344.641 280.728 340.449 280.73L340.451 284.73C345.042 284.727 349.205 284.031 352.901 282.576L351.436 278.854ZM359.105 273.696C357.15 275.884 354.598 277.604 351.433 278.855L352.904 282.575C356.559 281.13 359.658 279.08 362.087 276.362L359.105 273.696ZM363.133 265.933C362.413 268.921 361.07 271.497 359.105 273.696L362.087 276.362C364.506 273.655 366.151 270.48 367.022 266.871L363.133 265.933ZM352.384 266.993L364.855 268.39L365.3 264.415L352.83 263.018L352.384 266.993ZM351.366 270.488C352.754 269.178 353.8 267.579 354.487 265.688L350.727 264.322C350.245 265.648 349.538 266.713 348.62 267.58L351.366 270.488ZM346.563 273.375C348.383 272.736 349.994 271.784 351.366 270.488L348.62 267.58C347.686 268.462 346.569 269.134 345.239 269.6L346.563 273.375ZM340.624 274.316C342.762 274.316 344.744 274.013 346.563 273.375L345.239 269.6C343.908 270.067 342.383 270.316 340.624 270.316V274.316ZM332.022 272.178C334.537 273.635 337.428 274.316 340.624 274.316V270.316C338.006 270.316 335.832 269.762 334.027 268.717L332.022 272.178ZM326.193 265.963C327.563 268.649 329.517 270.727 332.022 272.178L334.027 268.717C332.213 267.666 330.789 266.17 329.756 264.145L326.193 265.963ZM324.175 256.94C324.218 260.329 324.865 263.358 326.193 265.963L329.756 264.145C328.765 262.202 328.212 259.805 328.174 256.889L324.175 256.94ZM365.646 254.915H326.175V258.915H365.646V254.915ZM363.646 252.82V256.915H367.646V252.82H363.646ZM361.716 240.668C362.987 243.99 363.646 248.024 363.646 252.82H367.646C367.646 247.675 366.941 243.131 365.452 239.239L361.716 240.668ZM356.522 232.467C358.686 234.574 360.423 237.289 361.716 240.668L365.452 239.239C363.984 235.405 361.954 232.173 359.312 229.601L356.522 232.467ZM348.975 227.734C351.82 228.757 354.32 230.324 356.522 232.467L359.312 229.601C356.707 227.066 353.719 225.189 350.329 223.97L348.975 227.734ZM339.747 226.178C343.024 226.178 346.105 226.697 348.972 227.733L350.332 223.971C346.996 222.765 343.452 222.178 339.747 222.178V226.178ZM326.669 229.586C330.32 227.338 334.654 226.178 339.747 226.178V222.178C334.026 222.178 328.942 223.489 324.572 226.18L326.669 229.586ZM318.054 239.114C320.121 235.009 322.99 231.851 326.669 229.586L324.572 226.18C320.229 228.853 316.864 232.583 314.481 237.316L318.054 239.114ZM314.923 253.6C314.923 247.932 315.991 243.212 318.054 239.114L314.481 237.316C312.095 242.056 310.923 247.409 310.923 253.6H314.923ZM318.036 268.148C315.994 264.108 314.923 259.278 314.923 253.6H310.923C310.923 259.783 312.092 265.253 314.466 269.952L318.036 268.148ZM326.747 277.438C322.973 275.267 320.075 272.183 318.036 268.148L314.466 269.952C316.844 274.659 320.279 278.332 324.753 280.906L326.747 277.438ZM326.168 240.756C324.99 242.93 324.354 245.285 324.205 247.779L328.198 248.017C328.314 246.064 328.805 244.284 329.685 242.661L326.168 240.756ZM331.673 234.856C329.328 236.352 327.484 238.326 326.168 240.756L329.685 242.661C330.674 240.834 332.045 239.363 333.825 238.228L331.673 234.856ZM339.942 232.56C336.875 232.56 334.09 233.313 331.673 234.856L333.825 238.228C335.532 237.138 337.553 236.56 339.942 236.56V232.56ZM347.706 234.581C345.427 233.22 342.823 232.56 339.942 232.56V236.56C342.192 236.56 344.07 237.069 345.655 238.015L347.706 234.581ZM352.951 240.086C351.701 237.789 349.961 235.927 347.706 234.581L345.655 238.015C347.264 238.976 348.512 240.298 349.438 241.998L352.951 240.086ZM354.851 247.873C354.815 245.025 354.199 242.431 352.96 240.103L349.429 241.981C350.334 243.682 350.822 245.637 350.851 247.923L354.851 247.873ZM326.202 249.898H352.851V245.898H326.202V249.898ZM428.194 241.883L428.216 241.881L427.781 237.905L427.759 237.907L428.194 241.883ZM419.683 230.049C423.083 232.557 425.173 235.932 426.012 240.274L429.94 239.516C428.92 234.237 426.305 229.963 422.057 226.83L419.683 230.049ZM405.168 226.199C411.546 226.199 416.306 227.558 419.683 230.049L422.057 226.83C417.769 223.667 412.073 222.199 405.168 222.199V226.199ZM393.942 228.178C397.117 226.881 400.847 226.199 405.168 226.199V222.199C400.429 222.199 396.17 222.947 392.428 224.476L393.942 228.178ZM386.697 233.509C388.38 231.272 390.764 229.477 393.942 228.178L392.428 224.476C388.688 226.004 385.682 228.206 383.501 231.103L386.697 233.509ZM384.241 241.385C384.212 238.294 385.051 235.694 386.697 233.509L383.501 231.103C381.282 234.051 380.205 237.527 380.241 241.422L384.241 241.385ZM387.558 250.263C385.364 248 384.226 245.094 384.241 241.411L380.241 241.396C380.223 245.999 381.683 249.949 384.685 253.047L387.558 250.263ZM398.595 255.432C393.368 254.339 389.773 252.549 387.558 250.263L384.685 253.047C387.666 256.122 392.125 258.166 397.777 259.347L398.595 255.432ZM408.259 257.463L398.598 255.433L397.775 259.347L407.436 261.378L408.259 257.463ZM414.919 260.33C413.311 258.972 411.031 258.066 408.273 257.466L407.422 261.375C409.892 261.912 411.445 262.631 412.338 263.385L414.919 260.33ZM417.495 265.887C417.495 263.679 416.623 261.769 414.919 260.33L412.337 263.385C413.134 264.058 413.495 264.845 413.495 265.887H417.495ZM413.721 272.387C416.082 270.8 417.495 268.606 417.495 265.887H413.495C413.495 267.001 412.993 268.057 411.489 269.068L413.721 272.387ZM404.941 274.677C408.258 274.677 411.354 273.98 413.721 272.387L411.489 269.068C409.992 270.075 407.761 270.677 404.941 270.677V274.677ZM396.333 272.383C398.673 273.971 401.601 274.677 404.941 274.677V270.677C402.143 270.677 400.07 270.085 398.578 269.073L396.333 272.383ZM391.738 265.372C392.421 268.369 393.946 270.764 396.333 272.383L398.578 269.073C397.133 268.092 396.125 266.621 395.638 264.484L391.738 265.372ZM380.857 268.17L393.88 266.919L393.497 262.937L380.475 264.188L380.857 268.17ZM389.364 276.731C385.598 274.146 383.372 270.563 382.642 265.871L378.69 266.487C379.583 272.225 382.391 276.797 387.101 280.029L389.364 276.731ZM404.99 280.75C398.324 280.75 393.172 279.344 389.364 276.731L387.101 280.029C391.769 283.232 397.788 284.75 404.99 284.75V280.75ZM416.767 278.615C413.419 280.021 409.501 280.75 404.99 280.75V284.75C409.929 284.75 414.389 283.952 418.316 282.303L416.767 278.615ZM424.49 272.881C422.669 275.276 420.128 277.204 416.767 278.615L418.316 282.303C422.229 280.66 425.371 278.332 427.674 275.301L424.49 272.881ZM427.2 264.634C427.171 267.801 426.261 270.518 424.482 272.891L427.682 275.29C429.996 272.205 431.164 268.651 431.2 264.67L427.2 264.634ZM423.85 256.231C426.032 258.332 427.185 261.076 427.2 264.66L431.2 264.644C431.182 260.105 429.672 256.285 426.625 253.35L423.85 256.231ZM412.834 251.238C418 252.35 421.594 254.071 423.855 256.235L426.621 253.346C423.621 250.473 419.226 248.523 413.675 247.328L412.834 251.238ZM403.176 249.176L412.837 251.239L413.672 247.327L404.011 245.264L403.176 249.176ZM396.118 246.199C397.724 247.552 400.169 248.483 403.144 249.169L404.042 245.271C401.237 244.624 399.557 243.866 398.695 243.14L396.118 246.199ZM393.588 240.601C393.544 242.864 394.425 244.772 396.118 246.199L398.695 243.14C397.921 242.487 397.567 241.73 397.588 240.679L393.588 240.601ZM397.305 234.259C394.945 235.765 393.565 237.92 393.588 240.657L397.588 240.623C397.579 239.494 398.05 238.529 399.457 237.631L397.305 234.259ZM405.379 232.142C402.315 232.142 399.581 232.806 397.305 234.259L399.457 237.631C400.948 236.679 402.89 236.142 405.379 236.142V232.142ZM411.469 233.32C409.702 232.496 407.657 232.142 405.379 232.142V236.142C407.259 236.142 408.688 236.437 409.779 236.945L411.469 233.32ZM415.614 236.522C414.541 235.139 413.132 234.095 411.469 233.32L409.779 236.945C410.974 237.502 411.838 238.18 412.454 238.974L415.614 236.522ZM417.748 240.692C417.329 239.177 416.599 237.792 415.614 236.522L412.454 238.974C413.158 239.881 413.629 240.803 413.892 241.757L417.748 240.692ZM427.759 237.907L415.603 239.237L416.038 243.213L428.194 241.883L427.759 237.907ZM429.946 239.547L429.94 239.517L426.012 240.274L426.018 240.304L429.946 239.547ZM426.209 238.999L426.193 239.031L429.771 240.819L429.787 240.787L426.209 238.999ZM493.137 237.905L493.115 237.907L493.55 241.883L493.572 241.881L493.137 237.905ZM495.127 240.818L495.144 240.786L491.565 238.999L491.549 239.032L495.127 240.818ZM491.368 240.274L491.374 240.304L495.302 239.547L495.296 239.517L491.368 240.274ZM481.394 243.213L493.55 241.883L493.115 237.907L480.959 239.237L481.394 243.213ZM477.81 238.974C478.514 239.881 478.985 240.803 479.248 241.757L483.104 240.692C482.685 239.177 481.955 237.792 480.97 236.522L477.81 238.974ZM475.135 236.945C476.33 237.502 477.194 238.18 477.81 238.974L480.97 236.522C479.897 235.139 478.488 234.095 476.825 233.32L475.135 236.945ZM470.735 236.142C472.615 236.142 474.044 236.437 475.135 236.945L476.825 233.32C475.058 232.496 473.013 232.142 470.735 232.142V236.142ZM464.813 237.631C466.304 236.679 468.246 236.142 470.735 236.142V232.142C467.671 232.142 464.937 232.806 462.661 234.259L464.813 237.631ZM462.944 240.623C462.935 239.494 463.406 238.529 464.813 237.631L462.661 234.259C460.301 235.765 458.921 237.92 458.944 240.657L462.944 240.623ZM464.051 243.14C463.288 242.497 462.933 241.739 462.944 240.66L458.944 240.62C458.922 242.855 459.769 244.762 461.474 246.199L464.051 243.14ZM469.401 245.271C466.616 244.626 464.926 243.867 464.042 243.131L461.484 246.207C463.1 247.551 465.535 248.481 468.498 249.168L469.401 245.271ZM479.028 247.327L469.367 245.264L468.531 249.176L478.193 251.239L479.028 247.327ZM491.977 253.346C488.977 250.473 484.582 248.523 479.031 247.328L478.19 251.238C483.356 252.35 486.95 254.071 489.211 256.235L491.977 253.346ZM496.556 264.644C496.538 260.105 495.028 256.285 491.981 253.35L489.206 256.231C491.388 258.332 492.541 261.076 492.556 264.66L496.556 264.644ZM493.034 275.297C495.371 272.203 496.52 268.645 496.556 264.67L492.556 264.634C492.527 267.807 491.629 270.52 489.842 272.885L493.034 275.297ZM483.671 282.303C487.585 280.66 490.727 278.332 493.03 275.301L489.846 272.881C488.025 275.276 485.484 277.204 482.123 278.615L483.671 282.303ZM470.346 284.75C475.285 284.75 479.745 283.952 483.671 282.303L482.123 278.615C478.775 280.021 474.857 280.75 470.346 280.75V284.75ZM452.457 280.029C457.125 283.232 463.144 284.75 470.346 284.75V280.75C463.68 280.75 458.528 279.344 454.72 276.731L452.457 280.029ZM444.046 266.487C444.939 272.225 447.747 276.797 452.457 280.029L454.72 276.731C450.954 274.146 448.728 270.563 447.998 265.871L444.046 266.487ZM458.853 262.937L445.831 264.188L446.213 268.17L459.236 266.919L458.853 262.937ZM463.934 269.073C462.489 268.092 461.481 266.621 460.994 264.484L457.094 265.372C457.777 268.369 459.302 270.764 461.689 272.383L463.934 269.073ZM470.297 270.677C467.499 270.677 465.426 270.085 463.934 269.073L461.689 272.383C464.029 273.971 466.957 274.677 470.297 274.677V270.677ZM476.845 269.068C475.348 270.075 473.117 270.677 470.297 270.677V274.677C473.614 274.677 476.71 273.98 479.077 272.387L476.845 269.068ZM478.851 265.887C478.851 267.001 478.349 268.057 476.845 269.068L479.077 272.387C481.438 270.8 482.851 268.606 482.851 265.887H478.851ZM477.693 263.385C478.489 264.058 478.851 264.845 478.851 265.887H482.851C482.851 263.679 481.979 261.769 480.274 260.33L477.693 263.385ZM472.778 261.375C475.257 261.914 476.815 262.634 477.684 263.377L480.284 260.338C478.685 258.969 476.378 258.064 473.628 257.466L472.778 261.375ZM463.131 259.347L472.792 261.378L473.615 257.463L463.953 255.433L463.131 259.347ZM450.041 253.047C453.022 256.122 457.481 258.166 463.133 259.347L463.951 255.432C458.724 254.339 455.129 252.549 452.914 250.263L450.041 253.047ZM445.597 241.396C445.579 245.999 447.039 249.949 450.041 253.047L452.914 250.263C450.72 248 449.582 245.094 449.597 241.411L445.597 241.396ZM448.857 231.103C446.638 234.051 445.561 237.527 445.597 241.422L449.597 241.385C449.568 238.294 450.407 235.694 452.053 233.509L448.857 231.103ZM457.784 224.476C454.044 226.004 451.038 228.206 448.857 231.103L452.053 233.509C453.736 231.272 456.12 229.477 459.298 228.178L457.784 224.476ZM470.524 222.199C465.785 222.199 461.526 222.947 457.784 224.476L459.298 228.178C462.473 226.881 466.203 226.199 470.524 226.199V222.199ZM487.413 226.83C483.125 223.667 477.429 222.199 470.524 222.199V226.199C476.902 226.199 481.662 227.558 485.039 230.049L487.413 226.83ZM495.296 239.516C494.276 234.237 491.661 229.963 487.413 226.83L485.039 230.049C488.439 232.557 490.529 235.932 491.368 240.274L495.296 239.516ZM521.227 280.906C525.709 283.483 530.971 284.73 536.936 284.73V280.73C531.534 280.73 526.988 279.604 523.221 277.438L521.227 280.906ZM510.94 269.952C513.318 274.659 516.753 278.332 521.227 280.906L523.221 277.438C519.447 275.267 516.549 272.183 514.51 268.148L510.94 269.952ZM507.413 253.6C507.413 259.778 508.564 265.25 510.94 269.952L514.51 268.148C512.47 264.111 511.413 259.282 511.413 253.6H507.413ZM510.971 237.316C508.585 242.056 507.413 247.409 507.413 253.6H511.413C511.413 247.932 512.481 243.212 514.544 239.114L510.971 237.316ZM521.062 226.18C516.72 228.853 513.354 232.583 510.971 237.316L514.544 239.114C516.611 235.009 519.481 231.851 523.159 229.586L521.062 226.18ZM536.237 222.178C530.516 222.178 525.433 223.489 521.062 226.18L523.159 229.586C526.81 227.338 531.145 226.178 536.237 226.178V222.178ZM546.822 223.971C543.486 222.765 539.942 222.178 536.237 222.178V226.178C539.515 226.178 542.595 226.697 545.462 227.733L546.822 223.971ZM555.802 229.601C553.198 227.066 550.209 225.189 546.819 223.97L545.465 227.734C548.31 228.757 550.81 230.324 553.012 232.467L555.802 229.601ZM561.942 239.239C560.475 235.405 558.444 232.173 555.802 229.601L553.012 232.467C555.176 234.574 556.913 237.289 558.206 240.668L561.942 239.239ZM564.136 252.82C564.136 247.675 563.431 243.131 561.942 239.239L558.206 240.668C559.477 243.99 560.136 248.024 560.136 252.82H564.136ZM564.136 256.915V252.82H560.136V256.915H564.136ZM522.665 258.915H562.136V254.915H522.665V258.915ZM526.247 264.145C525.255 262.201 524.702 259.805 524.665 256.889L520.665 256.94C520.708 260.329 521.355 263.358 522.684 265.963L526.247 264.145ZM530.517 268.717C528.703 267.666 527.28 266.17 526.247 264.145L522.684 265.963C524.054 268.649 526.007 270.727 528.513 272.178L530.517 268.717ZM537.114 270.316C534.497 270.316 532.322 269.762 530.517 268.717L528.513 272.178C531.027 273.635 533.919 274.316 537.114 274.316V270.316ZM541.729 269.6C540.399 270.067 538.873 270.316 537.114 270.316V274.316C539.252 274.316 541.234 274.013 543.053 273.375L541.729 269.6ZM545.11 267.58C544.176 268.462 543.06 269.134 541.729 269.6L543.053 273.375C544.873 272.736 546.484 271.784 547.856 270.488L545.11 267.58ZM547.218 264.322C546.736 265.648 546.028 266.713 545.11 267.58L547.856 270.488C549.244 269.178 550.29 267.579 550.977 265.688L547.218 264.322ZM561.791 264.415L549.32 263.018L548.875 266.993L561.345 268.39L561.791 264.415ZM558.578 276.362C560.993 273.659 562.658 270.483 563.514 266.862L559.621 265.942C558.918 268.917 557.564 271.493 555.595 273.696L558.578 276.362ZM549.395 282.575C553.054 281.128 556.132 279.078 558.573 276.367L555.6 273.691C553.624 275.886 551.084 277.606 547.924 278.855L549.395 282.575ZM536.919 284.73C541.52 284.73 545.689 284.033 549.391 282.576L547.927 278.854C544.777 280.094 541.12 280.73 536.919 280.73V284.73ZM536.936 280.73H536.919V284.73H536.936V280.73ZM524.689 248.019C524.807 246.071 525.307 244.286 526.181 242.65L522.652 240.766C521.497 242.928 520.848 245.277 520.696 247.777L524.689 248.019ZM549.341 245.898H522.692V249.898H549.341V245.898ZM545.919 241.981C546.824 243.682 547.312 245.637 547.341 247.923L551.341 247.873C551.305 245.025 550.689 242.431 549.451 240.103L545.919 241.981ZM542.139 238.012C543.742 238.977 545.006 240.304 545.928 241.998L549.441 240.086C548.188 237.784 546.431 235.927 544.202 234.585L542.139 238.012ZM536.432 236.56C538.682 236.56 540.56 237.069 542.146 238.015L544.196 234.581C541.917 233.22 539.313 232.56 536.432 232.56V236.56ZM530.315 238.228C532.022 237.138 534.044 236.56 536.432 236.56V232.56C533.365 232.56 530.58 233.313 528.163 234.856L530.315 238.228ZM526.175 242.661C527.164 240.834 528.536 239.363 530.315 238.228L528.163 234.856C525.818 236.352 523.974 238.326 522.658 240.756L526.175 242.661ZM593.115 206V281.626H597.115V206H593.115ZM581.751 208H595.115V204H581.751V208ZM583.751 281.626V206H579.751V281.626H583.751ZM595.115 279.626H581.751V283.626H595.115V279.626ZM285.533 416.468V340.842H281.533V416.468H285.533ZM269.845 418.468H283.533V414.468H269.845V418.468ZM267.845 340.842V416.468H271.845V340.842H267.845ZM283.533 338.842H269.845V342.842H283.533V338.842ZM321.656 383.228V416.451H325.656V383.228H321.656ZM323.418 375.301C322.203 377.577 321.656 380.243 321.656 383.228H325.656C325.656 380.722 326.115 378.742 326.947 377.184L323.418 375.301ZM328.433 370.084C326.287 371.303 324.609 373.049 323.414 375.307L326.95 377.178C327.801 375.568 328.949 374.391 330.408 373.562L328.433 370.084ZM335.639 368.296C333.007 368.296 330.578 368.866 328.433 370.084L330.408 373.562C331.867 372.734 333.595 372.296 335.639 372.296V368.296ZM345.222 372.168C342.821 369.526 339.526 368.296 335.639 368.296V372.296C338.637 372.296 340.765 373.211 342.261 374.858L345.222 372.168ZM348.681 382.416C348.681 378.291 347.614 374.778 345.216 372.162L342.267 374.864C343.799 376.536 344.681 378.97 344.681 382.416H348.681ZM348.681 416.451V382.416H344.681V416.451H348.681ZM360.044 414.451H346.681V418.451H360.044V414.451ZM358.044 380.336V416.451H362.044V380.336H358.044ZM355.874 369.69C357.304 372.508 358.06 376.044 358.044 380.329L362.044 380.343C362.061 375.596 361.226 371.398 359.441 367.88L355.874 369.69ZM349.876 363.243C352.438 364.71 354.43 366.83 355.872 369.687L359.443 367.884C357.67 364.372 355.147 361.651 351.864 359.771L349.876 363.243ZM340.624 360.989C344.242 360.989 347.299 361.767 349.876 363.243L351.864 359.771C348.596 357.9 344.833 356.989 340.624 356.989V360.989ZM331.067 363.473C333.53 361.863 336.683 360.989 340.624 360.989V356.989C336.089 356.989 332.13 357.999 328.878 360.125L331.067 363.473ZM325.571 370.129C326.717 367.335 328.548 365.12 331.067 363.473L328.878 360.125C325.681 362.215 323.323 365.069 321.87 368.611L325.571 370.129ZM323.055 371.37H323.721V367.37H323.055V371.37ZM321.055 359.736V369.37H325.055V359.736H321.055ZM310.292 361.736H323.055V357.736H310.292V361.736ZM312.292 416.451V359.736H308.292V416.451H312.292ZM323.656 414.451H310.292V418.451H323.656V414.451ZM426.96 376.724L426.982 376.722L426.546 372.745L426.524 372.748L426.96 376.724ZM418.449 364.889C421.849 367.398 423.939 370.772 424.779 375.115L428.706 374.357C427.686 369.077 425.071 364.804 420.823 361.67L418.449 364.889ZM403.934 361.04C410.312 361.04 415.072 362.399 418.449 364.889L420.823 361.67C416.535 358.507 410.839 357.04 403.934 357.04V361.04ZM392.708 363.019C395.883 361.722 399.613 361.04 403.934 361.04V357.04C399.195 357.04 394.936 357.787 391.194 359.317L392.708 363.019ZM385.463 368.349C387.146 366.113 389.53 364.318 392.708 363.019L391.194 359.317C387.454 360.845 384.448 363.047 382.267 365.944L385.463 368.349ZM383.007 376.226C382.978 373.135 383.817 370.535 385.463 368.349L382.267 365.944C380.048 368.892 378.971 372.368 379.007 376.263L383.007 376.226ZM386.324 385.104C384.13 382.84 382.992 379.935 383.007 376.252L379.007 376.237C378.989 380.84 380.449 384.79 383.451 387.888L386.324 385.104ZM397.361 390.273C392.134 389.18 388.539 387.39 386.324 385.104L383.451 387.888C386.432 390.963 390.891 393.007 396.543 394.188L397.361 390.273ZM407.025 392.304L397.364 390.273L396.541 394.188L406.202 396.219L407.025 392.304ZM413.685 395.17C412.077 393.813 409.797 392.907 407.039 392.307L406.188 396.216C408.658 396.753 410.211 397.472 411.104 398.226L413.685 395.17ZM416.261 400.727C416.261 398.52 415.389 396.61 413.685 395.17L411.104 398.226C411.9 398.899 412.261 399.686 412.261 400.727H416.261ZM412.487 407.228C414.848 405.641 416.261 403.447 416.261 400.727H412.261C412.261 401.842 411.759 402.897 410.255 403.909L412.487 407.228ZM403.707 409.518C407.024 409.518 410.12 408.821 412.487 407.228L410.255 403.909C408.758 404.916 406.527 405.518 403.707 405.518V409.518ZM395.099 407.224C397.439 408.811 400.367 409.518 403.707 409.518V405.518C400.909 405.518 398.836 404.925 397.344 403.914L395.099 407.224ZM390.504 400.213C391.187 403.21 392.712 405.605 395.099 407.224L397.344 403.914C395.899 402.933 394.891 401.462 394.404 399.325L390.504 400.213ZM379.623 403.011L392.646 401.76L392.263 397.778L379.241 399.029L379.623 403.011ZM388.13 411.572C384.364 408.987 382.138 405.404 381.408 400.712L377.456 401.327C378.349 407.066 381.157 411.638 385.867 414.87L388.13 411.572ZM403.756 415.591C397.09 415.591 391.938 414.185 388.13 411.572L385.867 414.87C390.535 418.073 396.554 419.591 403.756 419.591V415.591ZM415.533 413.456C412.185 414.862 408.267 415.591 403.756 415.591V419.591C408.695 419.591 413.155 418.793 417.082 417.144L415.533 413.456ZM423.256 407.721C421.435 410.117 418.894 412.045 415.533 413.456L417.082 417.144C420.995 415.501 424.137 413.173 426.44 410.142L423.256 407.721ZM425.966 399.474C425.937 402.642 425.027 405.359 423.248 407.732L426.449 410.131C428.762 407.045 429.93 403.492 429.966 399.511L425.966 399.474ZM422.616 391.072C424.798 393.173 425.951 395.917 425.966 399.501L429.966 399.485C429.948 394.945 428.438 391.126 425.391 388.191L422.616 391.072ZM411.6 386.079C416.766 387.191 420.36 388.912 422.621 391.076L425.387 388.187C422.387 385.314 417.992 383.363 412.441 382.169L411.6 386.079ZM401.942 384.016L411.603 386.08L412.438 382.168L402.777 380.105L401.942 384.016ZM394.884 381.039C396.49 382.393 398.935 383.324 401.91 384.009L402.808 380.112C400.003 379.465 398.323 378.707 397.461 377.98L394.884 381.039ZM392.354 375.442C392.31 377.705 393.191 379.612 394.884 381.039L397.461 377.98C396.687 377.328 396.333 376.571 396.354 375.52L392.354 375.442ZM396.071 369.1C393.711 370.606 392.331 372.76 392.354 375.498L396.354 375.464C396.345 374.335 396.816 373.37 398.223 372.472L396.071 369.1ZM404.145 366.982C401.081 366.982 398.347 367.647 396.071 369.1L398.223 372.472C399.714 371.52 401.656 370.982 404.145 370.982V366.982ZM410.235 368.161C408.468 367.337 406.423 366.982 404.145 366.982V370.982C406.025 370.982 407.454 371.277 408.545 371.786L410.235 368.161ZM414.38 371.363C413.307 369.98 411.898 368.936 410.235 368.161L408.545 371.786C409.74 372.343 410.604 373.021 411.22 373.815L414.38 371.363ZM416.514 375.533C416.095 374.018 415.365 372.633 414.38 371.363L411.22 373.815C411.924 374.722 412.395 375.644 412.658 376.598L416.514 375.533ZM426.525 372.748L414.369 374.078L414.804 378.054L426.96 376.724L426.525 372.748ZM428.712 374.388L428.706 374.358L424.778 375.114L424.784 375.144L428.712 374.388ZM424.975 373.84L424.959 373.873L428.537 375.659L428.554 375.627L424.975 373.84ZM449.337 437.733V359.751H445.337V437.733H449.337ZM460.701 435.733H447.337V439.733H460.701V435.733ZM458.701 407.531V437.733H462.701V407.531H458.701ZM461.253 405.531H460.701V409.531H461.253V405.531ZM465.795 410.623C464.57 409.15 463.657 407.825 463.029 406.612L459.477 408.45C460.278 409.999 461.378 411.567 462.719 413.18L465.795 410.623ZM470.31 414.05C468.351 413.055 466.866 411.912 465.795 410.623L462.719 413.18C464.213 414.978 466.17 416.434 468.498 417.616L470.31 414.05ZM477.49 415.458C474.448 415.458 472.089 414.953 470.31 414.05L468.498 417.616C471.006 418.89 474.038 419.458 477.49 419.458V415.458ZM488.351 412.353C485.173 414.419 481.578 415.458 477.49 415.458V419.458C482.301 419.458 486.662 418.222 490.531 415.707L488.351 412.353ZM495.977 403.204C494.065 407.274 491.516 410.295 488.351 412.353L490.531 415.707C494.413 413.183 497.418 409.543 499.597 404.905L495.977 403.204ZM498.84 388.182C498.84 394.273 497.851 399.183 495.975 403.21L499.6 404.9C501.783 400.218 502.84 394.699 502.84 388.182H498.84ZM495.919 373.076C497.834 377.074 498.84 382.088 498.84 388.182H502.84C502.84 381.669 501.767 376.026 499.526 371.348L495.919 373.076ZM488.247 364.044C491.417 366.037 493.975 369.006 495.917 373.074L499.527 371.351C497.312 366.711 494.285 363.115 490.376 360.658L488.247 364.044ZM477.442 361.004C481.464 361.004 485.038 362.026 488.247 364.044L490.376 360.658C486.505 358.224 482.188 357.004 477.442 357.004V361.004ZM470.185 362.45C471.953 361.525 474.334 361.004 477.442 361.004V357.004C473.924 357.004 470.849 357.588 468.331 358.905L470.185 362.45ZM465.72 365.957C466.765 364.653 468.237 363.468 470.185 362.45L468.331 358.905C465.992 360.128 464.054 361.64 462.599 363.455L465.72 365.957ZM463.046 370.011C463.645 368.798 464.53 367.457 465.726 365.95L462.593 363.463C461.288 365.108 460.224 366.691 459.46 368.24L463.046 370.011ZM460.473 371.125H461.253V367.125H460.473V371.125ZM458.473 359.751V369.125H462.473V359.751H458.473ZM447.337 361.751H460.473V357.751H447.337V361.751ZM458.441 388.101C458.441 391.956 458.986 395.422 460.129 398.443L463.87 397.027C462.935 394.557 462.441 391.59 462.441 388.101H458.441ZM462.214 389.027L462.23 388.995L458.652 387.207L458.636 387.24L462.214 389.027ZM460.08 377.859C458.952 380.851 458.425 384.285 458.425 388.133H462.425C462.425 384.638 462.905 381.704 463.822 379.27L460.08 377.859ZM465.275 370.65C462.935 372.42 461.216 374.844 460.08 377.859L463.822 379.27C464.732 376.858 466.033 375.092 467.688 373.84L465.275 370.65ZM473.756 367.986C470.406 367.986 467.662 368.843 465.275 370.65L467.688 373.84C469.295 372.624 471.162 371.986 473.756 371.986V367.986ZM482.432 370.727C480.028 368.87 477.093 367.986 473.756 367.986V371.986C476.362 371.986 478.395 372.663 479.986 373.892L482.432 370.727ZM487.583 378.035C486.469 375.014 484.774 372.537 482.432 370.727L479.986 373.892C481.638 375.169 482.931 376.981 483.83 379.419L487.583 378.035ZM489.217 388.101C489.217 384.37 488.686 381.026 487.583 378.035L483.83 379.419C484.74 381.886 485.217 384.748 485.217 388.101H489.217ZM487.566 398.267C488.687 395.239 489.217 391.828 489.217 388.101H485.217C485.217 391.457 484.739 394.382 483.815 396.878L487.566 398.267ZM482.407 405.667C484.73 403.815 486.436 401.317 487.566 398.267L483.815 396.878C482.899 399.351 481.584 401.207 479.913 402.54L482.407 405.667ZM473.74 408.492C476.933 408.492 479.994 407.59 482.407 405.667L479.913 402.54C478.331 403.801 476.196 404.492 473.74 404.492V408.492ZM465.301 405.762C467.68 407.616 470.532 408.492 473.74 408.492V404.492C471.296 404.492 469.342 403.84 467.759 402.607L465.301 405.762ZM460.128 398.439C461.277 401.494 463.003 403.958 465.295 405.757L467.766 402.612C466.127 401.325 464.801 399.5 463.872 397.031L460.128 398.439ZM523.712 415.751C528.191 418.328 533.45 419.574 539.412 419.576L539.412 415.576C534.014 415.575 529.471 414.449 525.706 412.284L523.712 415.751ZM513.425 404.798C515.803 409.504 519.238 413.178 523.712 415.751L525.706 412.284C521.931 410.113 519.034 407.029 516.995 402.994L513.425 404.798ZM509.897 388.446C509.897 394.624 511.048 400.095 513.425 404.798L516.995 402.994C514.955 398.957 513.897 394.128 513.897 388.446H509.897ZM513.456 372.162C511.07 376.902 509.897 382.255 509.897 388.446H513.897C513.897 382.778 514.966 378.058 517.029 373.96L513.456 372.162ZM523.547 361.025C519.204 363.699 515.838 367.429 513.456 372.162L517.029 373.96C519.095 369.855 521.965 366.697 525.644 364.432L523.547 361.025ZM538.722 357.024C533 357.024 527.917 358.335 523.547 361.025L525.644 364.432C529.295 362.184 533.629 361.024 538.722 361.024V357.024ZM549.307 358.817C545.971 357.611 542.427 357.024 538.722 357.024V361.024C541.999 361.024 545.08 361.542 547.947 362.579L549.307 358.817ZM558.287 364.447C555.682 361.912 552.694 360.035 549.303 358.816L547.95 362.58C550.795 363.603 553.295 365.17 555.497 367.313L558.287 364.447ZM564.426 374.085C562.959 370.251 560.929 367.019 558.287 364.447L555.497 367.313C557.661 369.42 559.397 372.135 560.691 375.514L564.426 374.085ZM566.621 387.666C566.621 382.52 565.916 377.977 564.426 374.085L560.691 375.514C561.962 378.836 562.621 382.87 562.621 387.666H566.621ZM566.621 391.76V387.666H562.621V391.76H566.621ZM525.149 393.76H564.621V389.76H525.149V393.76ZM528.731 398.991C527.74 397.047 527.186 394.651 527.149 391.735L523.15 391.786C523.193 395.175 523.84 398.204 525.168 400.809L528.731 398.991ZM533.002 403.563C531.188 402.512 529.764 401.016 528.731 398.991L525.168 400.809C526.538 403.495 528.492 405.573 530.997 407.024L533.002 403.563ZM539.599 405.162C536.981 405.162 534.807 404.608 533.002 403.563L530.997 407.024C533.512 408.481 536.403 409.162 539.599 409.162V405.162ZM544.214 404.446C542.883 404.913 541.358 405.162 539.599 405.162V409.162C541.737 409.162 543.719 408.859 545.538 408.221L544.214 404.446ZM547.595 402.426C546.661 403.308 545.544 403.979 544.214 404.446L545.538 408.221C547.358 407.582 548.969 406.63 550.341 405.334L547.595 402.426ZM549.702 399.168C549.22 400.494 548.513 401.559 547.595 402.426L550.341 405.334C551.728 404.024 552.775 402.425 553.462 400.534L549.702 399.168ZM564.275 399.261L551.805 397.863L551.359 401.839L563.83 403.236L564.275 399.261ZM561.062 411.208C563.477 408.505 565.143 405.329 565.999 401.708L562.106 400.788C561.403 403.763 560.049 406.338 558.079 408.542L561.062 411.208ZM551.879 417.421C555.539 415.974 558.617 413.924 561.057 411.213L558.084 408.537C556.108 410.732 553.568 412.452 550.408 413.701L551.879 417.421ZM539.412 419.576C544.009 419.575 548.176 418.878 551.876 417.422L550.411 413.7C547.263 414.939 543.609 415.575 539.412 415.576L539.412 419.576ZM527.173 382.865C527.292 380.917 527.792 379.132 528.665 377.496L525.137 375.612C523.982 377.774 523.333 380.123 523.181 382.623L527.173 382.865ZM551.826 380.744H525.177V384.744H551.826V380.744ZM548.404 376.827C549.309 378.528 549.797 380.483 549.826 382.769L553.825 382.719C553.789 379.871 553.173 377.277 551.935 374.949L548.404 376.827ZM544.624 372.858C546.227 373.823 547.49 375.15 548.413 376.844L551.926 374.932C550.673 372.63 548.916 370.773 546.687 369.431L544.624 372.858ZM538.917 371.406C541.167 371.406 543.044 371.915 544.63 372.861L546.68 369.427C544.401 368.066 541.798 367.406 538.917 367.406V371.406ZM532.799 373.074C534.507 371.984 536.528 371.406 538.917 371.406V367.406C535.85 367.406 533.065 368.159 530.648 369.702L532.799 373.074ZM528.659 377.507C529.649 375.68 531.02 374.209 532.799 373.074L530.648 369.702C528.303 371.198 526.459 373.171 525.142 375.601L528.659 377.507ZM608.949 415.576C603.595 415.576 599.12 414.408 595.433 412.136L593.335 415.542C597.767 418.273 603.002 419.576 608.949 419.576V415.576ZM610.011 419.272L610.059 419.239L607.839 415.912L607.79 415.944L610.011 419.272ZM620.428 413.212C617.225 414.777 613.411 415.608 608.9 415.608V419.608C613.905 419.608 618.34 418.684 622.184 416.806L620.428 413.212ZM627.985 406.674C626.144 409.452 623.645 411.639 620.428 413.212L622.184 416.806C626.014 414.934 629.068 412.28 631.319 408.884L627.985 406.674ZM631.198 396.96C630.898 400.673 629.825 403.899 627.985 406.674L631.319 408.884C633.571 405.486 634.836 401.596 635.185 397.283L631.198 396.96ZM620.429 399.122H633.192V395.122H620.429V399.122ZM619.862 403.508C621.12 401.804 621.956 399.778 622.393 397.499L618.465 396.745C618.123 398.527 617.497 399.977 616.644 401.133L619.862 403.508ZM615.188 407.389C617.047 406.499 618.616 405.197 619.862 403.508L616.644 401.133C615.78 402.304 614.719 403.179 613.459 403.782L615.188 407.389ZM609.03 408.707C611.252 408.707 613.324 408.283 615.188 407.389L613.459 403.782C612.206 404.383 610.738 404.707 609.03 404.707V408.707ZM600.592 406.08C603.016 407.85 605.859 408.707 609.03 408.707V404.707C606.616 404.707 604.62 404.069 602.952 402.85L600.592 406.08ZM595.149 398.841C596.398 401.876 598.196 404.348 600.601 406.086L602.944 402.844C601.256 401.625 599.872 399.808 598.848 397.319L595.149 398.841ZM593.31 388.138C593.31 392.142 593.904 395.773 595.145 398.832L598.852 397.328C597.852 394.864 597.31 391.769 597.31 388.138H593.31ZM595.187 377.534C593.906 380.585 593.31 384.128 593.31 388.138H597.31C597.31 384.511 597.85 381.523 598.875 379.083L595.187 377.534ZM600.697 370.374C598.281 372.086 596.459 374.504 595.187 377.534L598.875 379.083C599.908 376.622 601.301 374.848 603.01 373.637L600.697 370.374ZM609.047 367.812C605.94 367.812 603.125 368.652 600.697 370.374L603.01 373.637C604.706 372.434 606.697 371.812 609.047 371.812V367.812ZM618.153 371.108C615.772 368.845 612.656 367.812 609.047 367.812V371.812C611.867 371.812 613.915 372.598 615.398 374.007L618.153 371.108ZM622.41 379.039C621.817 375.923 620.407 373.248 618.153 371.108L615.398 374.007C617.009 375.538 618.035 377.445 618.481 379.787L622.41 379.039ZM633.208 377.413H620.445V381.413H633.208V377.413ZM627.939 369.824C629.832 372.578 630.944 375.804 631.213 379.556L635.203 379.27C634.887 374.867 633.564 370.945 631.235 367.558L627.939 369.824ZM620.22 363.365C623.481 364.915 626.041 367.063 627.939 369.824L631.235 367.558C628.911 364.177 625.788 361.582 621.937 359.752L620.22 363.365ZM608.852 361.024C613.199 361.024 616.974 361.823 620.22 363.365L621.937 359.752C618.071 357.916 613.695 357.024 608.852 357.024V361.024ZM595.524 364.435C599.204 362.188 603.62 361.024 608.852 361.024V357.024C603.01 357.024 597.846 358.33 593.439 361.022L595.524 364.435ZM586.885 373.955C588.933 369.858 591.814 366.702 595.524 364.435L593.439 361.022C589.063 363.694 585.676 367.426 583.307 372.167L586.885 373.955ZM583.784 388.333C583.784 382.856 584.837 378.053 586.885 373.955L583.307 372.167C580.938 376.907 579.784 382.34 579.784 388.333H583.784ZM586.839 402.634C584.822 398.568 583.784 393.812 583.784 388.333H579.784C579.784 394.323 580.921 399.705 583.256 404.411L586.839 402.634ZM595.432 412.135C591.718 409.852 588.854 406.695 586.839 402.634L583.256 404.411C585.593 409.123 588.964 412.854 593.337 415.543L595.432 412.135ZM682.849 370.084V359.751H678.849V370.084H682.849ZM669.678 372.084H680.849V368.084H669.678V372.084ZM671.678 399.392V370.084H667.678V399.392H671.678ZM672.231 402.491C671.94 401.994 671.678 401.044 671.678 399.392H667.678C667.678 401.346 667.968 403.126 668.78 404.513L672.231 402.491ZM673.4 403.563C672.982 403.406 672.587 403.098 672.231 402.491L668.78 404.513C669.529 405.791 670.595 406.783 671.995 407.308L673.4 403.563ZM675.718 403.955C674.833 403.955 674.066 403.813 673.4 403.563L671.995 407.308C673.148 407.741 674.395 407.955 675.718 407.955V403.955ZM677.702 403.803C677.115 403.898 676.444 403.955 675.718 403.955V407.955C676.649 407.955 677.536 407.883 678.345 407.751L677.702 403.803ZM677.804 403.783L677.658 403.81L678.39 407.743L678.535 407.716L677.804 403.783ZM679.126 403.517C678.865 403.585 678.464 403.661 677.804 403.783L678.535 407.716C679.13 407.605 679.703 407.5 680.136 407.387L679.126 403.517ZM683.843 415.476L681.586 405.029L677.676 405.874L679.933 416.32L683.843 415.476ZM679.27 418.663C680.619 418.363 681.722 418.068 682.534 417.791L681.243 414.005C680.626 414.215 679.682 414.473 678.402 414.758L679.27 418.663ZM674.064 419.23C676.053 419.179 677.795 418.991 679.27 418.663L678.402 414.758C677.246 415.015 675.773 415.184 673.962 415.231L674.064 419.23ZM664.197 417.548C667.179 418.796 670.49 419.334 674.071 419.229L673.955 415.231C670.847 415.322 668.117 414.852 665.741 413.858L664.197 417.548ZM656.932 411.57C658.718 414.288 661.165 416.279 664.197 417.548L665.741 413.858C663.415 412.885 661.607 411.4 660.275 409.373L656.932 411.57ZM654.298 401.599C654.263 405.449 655.112 408.8 656.932 411.57L660.275 409.373C658.978 407.4 658.268 404.87 658.298 401.636L654.298 401.599ZM654.298 370.084V401.618H658.298V370.084H654.298ZM648.26 372.084H656.298V368.084H648.26V372.084ZM646.26 359.751V370.084H650.26V359.751H646.26ZM656.298 357.751H648.26V361.751H656.298V357.751ZM654.298 346.153V359.751H658.298V346.153H654.298ZM656.314 344.153H656.298V348.153H656.314V344.153ZM669.678 344.153H656.314V348.153H669.678V344.153ZM671.678 359.751V346.153H667.678V359.751H671.678ZM680.849 357.751H669.678V361.751H680.849V357.751ZM725.064 415.571C719.828 415.571 715.406 414.422 711.707 412.201L709.648 415.631C714.067 418.284 719.226 419.571 725.064 419.571V415.571ZM738.421 412.201C734.722 414.422 730.284 415.571 725.064 415.571V419.571C730.885 419.571 736.06 418.284 740.48 415.631L738.421 412.201ZM747.101 402.776C745.04 406.839 742.146 409.965 738.421 412.201L740.48 415.631C744.873 412.993 748.279 409.296 750.668 404.586L747.101 402.776ZM750.229 388.328C750.229 393.937 749.159 398.733 747.102 402.774L750.667 404.588C753.059 399.889 754.229 394.45 754.229 388.328H750.229ZM747.099 373.829C749.159 377.906 750.229 382.72 750.229 388.328H754.229C754.229 382.207 753.059 376.754 750.669 372.025L747.099 373.829ZM738.421 364.374C742.143 366.609 745.037 369.748 747.099 373.829L750.669 372.025C748.282 367.3 744.876 363.584 740.48 360.945L738.421 364.374ZM725.064 361.004C730.284 361.004 734.722 362.154 738.421 364.374L740.48 360.945C736.06 358.291 730.885 357.004 725.064 357.004V361.004ZM711.707 364.374C715.406 362.154 719.843 361.004 725.064 361.004V357.004C719.243 357.004 714.068 358.291 709.648 360.945L711.707 364.374ZM703.028 373.829C705.09 369.748 707.985 366.609 711.707 364.374L709.648 360.945C705.251 363.584 701.846 367.3 699.458 372.025L703.028 373.829ZM699.898 388.328C699.898 382.738 700.968 377.921 703.03 373.826L699.457 372.028C697.069 376.77 695.898 382.222 695.898 388.328H699.898ZM703.027 402.776C700.968 398.717 699.898 393.919 699.898 388.328H695.898C695.898 394.435 697.069 399.872 699.46 404.586L703.027 402.776ZM711.707 412.201C707.981 409.965 705.087 406.839 703.027 402.776L699.46 404.586C701.848 409.296 705.254 412.993 709.648 415.631L711.707 412.201ZM725.145 408.865C728.542 408.865 731.508 407.918 733.944 405.929L731.414 402.83C729.791 404.156 727.756 404.865 725.145 404.865V408.865ZM716.216 405.929C718.663 407.927 721.683 408.865 725.145 408.865V404.865C722.437 404.865 720.358 404.147 718.746 402.83L716.216 405.929ZM711.048 398.351C712.147 401.468 713.871 404.014 716.216 405.929L718.746 402.83C717.031 401.43 715.703 399.525 714.821 397.021L711.048 398.351ZM709.44 388.312C709.44 391.984 709.973 395.317 711.049 398.354L714.819 397.018C713.915 394.467 713.44 391.594 713.44 388.312H709.44ZM711.047 378.212C709.972 381.278 709.44 384.641 709.44 388.312H713.44C713.44 385.03 713.915 382.122 714.822 379.534L711.047 378.212ZM716.209 370.588C713.862 372.523 712.161 375.085 711.05 378.202L714.818 379.544C715.722 377.008 717.041 375.086 718.753 373.674L716.209 370.588ZM725.145 367.613C721.762 367.613 718.657 368.569 716.209 370.588L718.753 373.674C720.364 372.346 722.52 371.613 725.145 371.613V367.613ZM733.958 370.593C731.535 368.579 728.546 367.613 725.145 367.613V371.613C727.752 371.613 729.797 372.336 731.401 373.669L733.958 370.593ZM739.08 378.208C737.986 375.106 736.286 372.528 733.958 370.593L731.401 373.669C733.099 375.08 734.419 377.019 735.307 379.538L739.08 378.208ZM740.687 388.312C740.687 384.675 740.156 381.279 739.081 378.212L735.306 379.534C736.212 382.121 736.687 385.061 736.687 388.312H740.687ZM739.08 398.351C740.155 395.3 740.687 391.952 740.687 388.312H736.687C736.687 391.56 736.213 394.451 735.307 397.021L739.08 398.351ZM733.95 405.924C736.282 404.005 737.984 401.442 739.078 398.354L735.308 397.018C734.422 399.519 733.104 401.44 731.408 402.835L733.95 405.924ZM765.687 359.752V416.467H769.687V359.752H765.687ZM780.645 357.752H767.687V361.752H780.645V357.752ZM782.645 369.207V359.752H778.645V369.207H782.645ZM781.229 367.207H780.645V371.207H781.229V367.207ZM785.398 359.989C782.486 362.056 780.478 364.956 779.323 368.603L783.136 369.811C784.06 366.895 785.591 364.758 787.713 363.251L785.398 359.989ZM795.21 356.939C791.572 356.939 788.272 357.948 785.398 359.989L787.713 363.251C789.873 361.717 792.353 360.939 795.21 360.939V356.939ZM797.837 357.042C796.89 356.974 796.013 356.939 795.21 356.939V360.939C795.9 360.939 796.68 360.969 797.552 361.032L797.837 357.042ZM800.412 357.356C799.656 357.197 798.78 357.108 797.834 357.042L797.554 361.032C798.46 361.095 799.11 361.17 799.588 361.27L800.412 357.356ZM802 371.611V359.313H798V371.611H802ZM797.056 373.058C798.249 373.217 798.979 373.376 799.351 373.503L800.649 369.72C799.884 369.457 798.828 369.259 797.585 369.093L797.056 373.058ZM793.797 372.832C794.838 372.832 795.919 372.906 797.056 373.058L797.585 369.093C796.288 368.92 795.03 368.832 793.797 368.832V372.832ZM788.213 374.162C789.818 373.285 791.657 372.832 793.797 372.832V368.832C791.067 368.832 788.554 369.417 786.294 370.652L788.213 374.162ZM784.402 377.78C785.334 376.239 786.581 375.054 788.213 374.162L786.294 370.652C784.062 371.873 782.288 373.547 780.98 375.71L784.402 377.78ZM783.035 383.13C783.035 381.033 783.498 379.274 784.402 377.78L780.98 375.71C779.643 377.92 779.035 380.418 779.035 383.13H783.035ZM783.035 416.467V383.13H779.035V416.467H783.035ZM767.687 418.467H781.035V414.467H767.687V418.467ZM261.193 551.314V475.688H257.193V551.314H261.193ZM272.865 549.314H259.193V553.314H272.865V549.314ZM270.865 525.758V551.314H274.865V525.758H270.865ZM287.333 523.758H272.865V527.758H287.333V523.758ZM301.109 520.766C297.479 522.73 292.923 523.758 287.333 523.758V527.758C293.401 527.758 298.652 526.643 303.012 524.285L301.109 520.766ZM309.347 512.685C307.496 516.094 304.781 518.78 301.109 520.766L303.012 524.285C307.328 521.95 310.621 518.722 312.862 514.593L309.347 512.685ZM312.173 500.723C312.173 505.23 311.212 509.262 309.348 512.682L312.86 514.596C315.088 510.51 316.173 505.802 316.173 500.723H312.173ZM309.358 488.801C311.216 492.266 312.173 496.224 312.173 500.723H316.173C316.173 495.637 315.085 491.017 312.883 486.911L309.358 488.801ZM301.197 480.691C304.82 482.675 307.521 485.374 309.358 488.801L312.883 486.911C310.661 482.767 307.387 479.521 303.118 477.183L301.197 480.691ZM287.528 477.688C293.097 477.688 297.617 478.731 301.197 480.691L303.118 477.183C298.806 474.822 293.584 473.688 287.528 473.688V477.688ZM259.193 477.688H287.528V473.688H259.193V477.688ZM285.482 512.5H272.865V516.5H285.482V512.5ZM292.871 510.973C291.079 511.949 288.662 512.5 285.482 512.5V516.5C289.088 516.5 292.225 515.881 294.785 514.485L292.871 510.973ZM296.87 506.944C296.006 508.633 294.709 509.971 292.871 510.973L294.785 514.485C297.298 513.115 299.184 511.204 300.431 508.766L296.87 506.944ZM298.225 500.723C298.225 503.149 297.745 505.206 296.864 506.956L300.436 508.755C301.634 506.378 302.225 503.691 302.225 500.723H298.225ZM296.876 494.562C297.757 496.258 298.225 498.286 298.225 500.723H302.225C302.225 497.766 301.654 495.083 300.425 492.717L296.876 494.562ZM292.885 490.636C294.726 491.598 296.033 492.902 296.867 494.545L300.434 492.734C299.19 490.284 297.249 488.403 294.738 487.091L292.885 490.636ZM285.417 489.141C288.631 489.141 291.079 489.692 292.885 490.636L294.738 487.091C292.192 485.76 289.055 485.141 285.417 485.141V489.141ZM272.865 489.141H285.417V485.141H272.865V489.141ZM274.865 514.5V487.141H270.865V514.5H274.865ZM325.553 494.599V551.314H329.553V494.599H325.553ZM340.511 492.599H327.553V496.599H340.511V492.599ZM342.511 504.054V494.599H338.511V504.054H342.511ZM341.095 502.054H340.511V506.054H341.095V502.054ZM345.263 494.837C342.352 496.904 340.344 499.803 339.189 503.451L343.002 504.658C343.925 501.742 345.457 499.605 347.579 498.098L345.263 494.837ZM355.076 491.787C351.438 491.787 348.138 492.796 345.263 494.837L347.579 498.098C349.739 496.565 352.219 495.787 355.076 495.787V491.787ZM357.703 491.889C356.755 491.822 355.863 491.787 355.076 491.787V495.787C355.75 495.787 356.546 495.817 357.418 495.879L357.703 491.889ZM360.278 492.203C359.521 492.044 358.646 491.956 357.7 491.889L357.42 495.879C358.325 495.943 358.976 496.017 359.454 496.118L360.278 492.203ZM361.866 506.459V494.16H357.866V506.459H361.866ZM356.922 507.905C358.115 508.064 358.845 508.223 359.217 508.351L360.515 504.567C359.75 504.305 358.694 504.106 357.451 503.94L356.922 507.905ZM353.663 507.679C354.704 507.679 355.785 507.753 356.922 507.905L357.451 503.94C356.153 503.767 354.896 503.679 353.663 503.679V507.679ZM348.085 509.006C349.667 508.135 351.519 507.679 353.663 507.679V503.679C350.937 503.679 348.404 504.263 346.154 505.503L348.085 509.006ZM344.268 512.628C345.204 511.08 346.452 509.885 348.067 509.016L346.172 505.494C343.923 506.704 342.15 508.401 340.845 510.557L344.268 512.628ZM342.9 517.977C342.9 515.891 343.376 514.124 344.275 512.617L340.839 510.568C339.529 512.765 338.9 515.255 338.9 517.977H342.9ZM342.9 551.314V517.977H338.9V551.314H342.9ZM327.553 553.314H340.9V549.314H327.553V553.314ZM395.572 550.419C390.336 550.419 385.914 549.27 382.215 547.049L380.156 550.478C384.575 553.131 389.734 554.419 395.572 554.419V550.419ZM408.929 547.049C405.229 549.27 400.808 550.419 395.572 550.419V554.419C401.41 554.419 406.568 553.131 410.987 550.478L408.929 547.049ZM417.608 537.624C415.548 541.687 412.654 544.812 408.929 547.049L410.987 550.478C415.381 547.841 418.787 544.143 421.176 539.433L417.608 537.624ZM420.737 523.176C420.737 528.784 419.667 533.58 417.61 537.621L421.174 539.436C423.567 534.736 424.737 529.297 424.737 523.176H420.737ZM417.607 508.676C419.667 512.753 420.737 517.568 420.737 523.176H424.737C424.737 517.054 423.567 511.601 421.177 506.873L417.607 508.676ZM408.929 499.222C412.651 501.456 415.545 504.596 417.607 508.676L421.177 506.873C418.79 502.148 415.384 498.432 410.987 495.792L408.929 499.222ZM395.572 495.852C400.808 495.852 405.229 497.001 408.929 499.222L410.987 495.792C406.568 493.139 401.41 491.852 395.572 491.852V495.852ZM382.215 499.222C385.914 497.001 390.336 495.852 395.572 495.852V491.852C389.734 491.852 384.575 493.139 380.156 495.792L382.215 499.222ZM373.536 508.676C375.598 504.596 378.493 501.456 382.215 499.222L380.156 495.792C375.759 498.432 372.353 502.148 369.966 506.873L373.536 508.676ZM370.406 523.176C370.406 517.585 371.476 512.769 373.538 508.674L369.965 506.875C367.577 511.618 366.406 517.069 366.406 523.176H370.406ZM373.535 537.624C371.476 533.564 370.406 528.767 370.406 523.176H366.406C366.406 529.282 367.577 534.72 369.967 539.433L373.535 537.624ZM382.215 547.049C378.489 544.812 375.595 541.687 373.535 537.624L369.967 539.433C372.356 544.143 375.762 547.841 380.156 550.478L382.215 547.049ZM395.653 543.713C399.049 543.713 402.016 542.765 404.452 540.776L401.922 537.678C400.299 539.003 398.264 539.713 395.653 539.713V543.713ZM386.724 540.776C389.171 542.774 392.191 543.713 395.653 543.713V539.713C392.945 539.713 390.866 538.994 389.254 537.678L386.724 540.776ZM381.556 533.198C382.655 536.316 384.379 538.862 386.724 540.776L389.254 537.678C387.539 536.278 386.211 534.373 385.329 531.869L381.556 533.198ZM379.948 523.16C379.948 526.831 380.48 530.164 381.557 533.202L385.327 531.865C384.423 529.314 383.948 526.441 383.948 523.16H379.948ZM381.555 513.059C380.48 516.126 379.948 519.488 379.948 523.16H383.948C383.948 519.877 384.423 516.969 385.33 514.382L381.555 513.059ZM386.716 505.435C384.369 507.37 382.668 509.932 381.558 513.05L385.326 514.392C386.229 511.855 387.549 509.933 389.261 508.522L386.716 505.435ZM395.653 502.46C392.27 502.46 389.165 503.416 386.716 505.435L389.261 508.522C390.872 507.194 393.028 506.46 395.653 506.46V502.46ZM404.465 505.44C402.043 503.427 399.054 502.46 395.653 502.46V506.46C398.26 506.46 400.305 507.183 401.909 508.517L404.465 505.44ZM409.587 513.056C408.494 509.954 406.794 507.376 404.465 505.44L401.909 508.517C403.607 509.928 404.927 511.866 405.815 514.385L409.587 513.056ZM411.195 523.16C411.195 519.522 410.663 516.127 409.589 513.059L405.814 514.382C406.72 516.968 407.195 519.909 407.195 523.16H411.195ZM409.587 533.198C410.663 530.147 411.195 526.8 411.195 523.16H407.195C407.195 526.408 406.721 529.299 405.815 531.869L409.587 533.198ZM404.458 540.771C406.79 538.852 408.492 536.289 409.586 533.202L405.816 531.865C404.929 534.367 403.611 536.288 401.916 537.683L404.458 540.771Z" fill="url(#paint5_linear_4591_7619)"/>
</g>
</g>
<defs>
<filter id="filter0_d_4591_7619" x="147.059" y="402.702" width="676.895" height="541.13" filterUnits="userSpaceOnUse" color-interpolation-filters="sRGB">
<feFlood flood-opacity="0" result="BackgroundImageFix"/>
<feColorMatrix in="SourceAlpha" type="matrix" values="0 0 0 0 0 0 0 0 0 0 0 0 0 0 0 0 0 0 127 0" result="hardAlpha"/>
<feOffset/>
<feGaussianBlur stdDeviation="40"/>
<feComposite in2="hardAlpha" operator="out"/>
<feColorMatrix type="matrix" values="0 0 0 0 0 0 0 0 0 0.156863 0 0 0 0 0.54902 0 0 0 0.3 0"/>
<feBlend mode="normal" in2="BackgroundImageFix" result="effect1_dropShadow_4591_7619"/>
<feBlend mode="normal" in="SourceGraphic" in2="effect1_dropShadow_4591_7619" result="shape"/>
</filter>
<filter id="filter1_d_4591_7619" x="503.446" y="647.635" width="339.18" height="278.364" filterUnits="userSpaceOnUse" color-interpolation-filters="sRGB">
<feFlood flood-opacity="0" result="BackgroundImageFix"/>
<feColorMatrix in="SourceAlpha" type="matrix" values="0 0 0 0 0 0 0 0 0 0 0 0 0 0 0 0 0 0 127 0" result="hardAlpha"/>
<feOffset/>
<feGaussianBlur stdDeviation="40"/>
<feComposite in2="hardAlpha" operator="out"/>
<feColorMatrix type="matrix" values="0 0 0 0 0 0 0 0 0 0.156863 0 0 0 0 0.54902 0 0 0 0.3 0"/>
<feBlend mode="normal" in2="BackgroundImageFix" result="effect1_dropShadow_4591_7619"/>
<feBlend mode="normal" in="SourceGraphic" in2="effect1_dropShadow_4591_7619" result="shape"/>
</filter>
<filter id="filter2_d_4591_7619" x="157.177" y="124" width="724.824" height="510.419" filterUnits="userSpaceOnUse" color-interpolation-filters="sRGB">
<feFlood flood-opacity="0" result="BackgroundImageFix"/>
<feColorMatrix in="SourceAlpha" type="matrix" values="0 0 0 0 0 0 0 0 0 0 0 0 0 0 0 0 0 0 127 0" result="hardAlpha"/>
<feOffset/>
<feGaussianBlur stdDeviation="40"/>
<feComposite in2="hardAlpha" operator="out"/>
<feColorMatrix type="matrix" values="0 0 0 0 0 0 0 0 0 0.156863 0 0 0 0 0.54902 0 0 0 1 0"/>
<feBlend mode="normal" in2="BackgroundImageFix" result="effect1_dropShadow_4591_7619"/>
<feBlend mode="normal" in="SourceGraphic" in2="effect1_dropShadow_4591_7619" result="shape"/>
</filter>
<linearGradient id="paint0_linear_4591_7619" x1="512" y1="1024" x2="512" y2="0" gradientUnits="userSpaceOnUse">
<stop stop-color="#3CB9F0"/>
<stop offset="1" stop-color="#2D69E6"/>
</linearGradient>
<linearGradient id="paint1_linear_4591_7619" x1="658.001" y1="1434.56" x2="658.001" y2="233.249" gradientUnits="userSpaceOnUse">
<stop stop-color="#4BAFE6"/>
<stop offset="1" stop-color="#82E1DC"/>
</linearGradient>
<linearGradient id="paint2_linear_4591_7619" x1="670.261" y1="1434.56" x2="670.261" y2="260.235" gradientUnits="userSpaceOnUse">
<stop stop-color="#4BAFE6"/>
<stop offset="1" stop-color="#82E1DC"/>
</linearGradient>
<linearGradient id="paint3_linear_4591_7619" x1="875.794" y1="1398.64" x2="875.794" y2="202" gradientUnits="userSpaceOnUse">
<stop stop-color="#4BAFE6"/>
<stop offset="1" stop-color="#82E1DC"/>
</linearGradient>
<linearGradient id="paint4_linear_4591_7619" x1="520" y1="206" x2="520" y2="552.419" gradientUnits="userSpaceOnUse">
<stop stop-color="#C3FAFF"/>
<stop offset="1" stop-color="#DCFAFF"/>
</linearGradient>
<linearGradient id="paint5_linear_4591_7619" x1="520" y1="206" x2="520" y2="552.419" gradientUnits="userSpaceOnUse">
<stop stop-color="#C3FAFF"/>
<stop offset="1" stop-color="#DCFAFF"/>
</linearGradient>
<clipPath id="clip0_4591_7619">
<rect width="1024" height="1024" fill="white"/>
</clipPath>
</defs>
</svg>
